<svg width="275" height="562" viewBox="0 0 275 562" fill="none" xmlns="http://www.w3.org/2000/svg">
<g clip-path="url(#clip0_3_21)">
<path d="M156.245 83.3167L165.365 78.3266C171.21 78.796 176.785 80.9903 181.382 84.6315C185.979 88.2727 189.392 93.197 191.188 98.7801C197.869 118.583 206.678 140.633 210.914 147.569C221.642 166.842 239.668 186.999 249.519 203.53L240.236 230.857C173.957 178.292 175.012 161.104 156.245 83.3167Z" fill="#0544A0"/>
<path d="M161.689 500.268C148.035 538.804 168.024 523.91 189.519 542.498C193.116 547.696 203.071 557.749 214.921 559.231C226.772 560.713 235.227 557.554 234.608 550.66C234.13 545.42 231.09 536.695 220.85 529.265C210.476 521.76 202.22 515.19 198.092 514.344C193.964 513.498 186.287 519.059 185.874 522.442C185.461 525.824 182 524.612 175.663 519.004C169.325 513.397 161.689 500.268 161.689 500.268Z" fill="black"/>
<path d="M234.53 552.439C233.641 558.085 225.702 560.575 214.92 559.231C203.07 557.749 193.119 547.696 189.518 542.499C184.855 534.446 161.166 532.649 158.232 524.412C154.466 536.377 170.321 537.6 180.183 542.384C180.996 541.557 181.88 540.644 182.744 539.773C193.795 546.146 197.163 559.074 214.92 561.65C227.078 563.123 235.681 559.937 234.53 552.439Z" fill="#0C1016"/>
<path d="M181.966 249.633C181.966 249.633 194.107 310.761 194.107 345.729C195.837 408.199 189.03 462.814 204.427 517.499C191.289 530.305 166.551 523.317 154.526 516.214C162.503 495.811 142.531 441.254 147.3 412.192C149.327 389.072 151.922 389.365 150.765 376.069C149.609 362.773 116.391 271.181 116.391 271.181L181.966 249.633Z" fill="#365B70"/>
<path opacity="0.3" d="M116.391 271.18L181.966 249.633C181.966 249.633 183.184 255.791 184.857 265.307C178.528 270.821 168.62 280.56 162.386 292.163C152.639 310.282 143.313 314.388 152.463 332.345C161.613 350.303 170.332 362.642 165.459 371.472C160.585 380.302 155.864 385.179 160.406 394.674C164.947 404.169 153.56 429.555 160.406 455.974C165.416 475.284 174.147 501.444 175.192 523.842C161.74 520.593 154.525 516.212 154.525 516.212C162.502 495.808 142.529 441.252 147.298 412.19C149.326 389.07 151.921 389.362 150.764 376.067C149.607 362.771 116.391 271.18 116.391 271.18Z" fill="#365B70"/>
<path d="M70.8336 462.897C81.2082 454.245 88.8606 482.851 96.448 487.136C114.645 506.864 96.2531 514.677 71.9963 505.348C57.2821 498.89 55.906 485.761 53.7884 479.731C51.6707 473.701 36.3312 456.761 35.3751 453.164C35.3751 453.164 38.5439 439.721 46.6987 434.215C46.6987 434.215 48.7073 450.621 51.0395 456.125C53.3718 461.629 65.0123 468.725 70.8336 462.897Z" fill="black"/>
<path d="M102.268 505.877C82.864 515.77 57.0663 503.208 53.793 479.731C51.7334 473.521 35.975 456.769 35.4366 452.935C34.5212 455.152 33.7526 457.428 33.1356 459.747C33.7808 462.195 41.0711 470.795 46.3448 477.948L50.1101 477.613C56.8563 487.013 52.7209 499.185 70.9961 508.01C86.4622 514.16 100.592 512.929 102.774 505.4C102.626 505.58 102.456 505.74 102.268 505.877Z" fill="#0C1016"/>
<path d="M146.411 277.82C146.411 277.82 126.764 345.729 118.679 362.483C110.594 379.237 96.8959 393.352 91.6941 408.09C86.4923 422.828 83.8352 469.28 83.8352 469.28C59.4288 479.997 43.5241 455.246 40.6708 437.616C40.6708 437.616 45.4584 424.619 48.1851 404.092C50.8922 383.755 51.3656 375.196 60.8977 363.351C70.4299 351.506 72.4523 348.033 73.0336 329.832C73.615 311.631 77.0786 288.505 81.1223 276.373C85.1661 264.242 146.411 277.82 146.411 277.82Z" fill="#365B70"/>
<path opacity="0.3" d="M60.8908 363.35C70.4229 351.503 72.4454 348.032 73.0267 329.831C73.608 311.63 77.0716 288.504 81.1153 276.372C85.1591 264.24 146.408 277.82 146.408 277.82C146.408 277.82 144.984 282.755 142.741 290.275L129.563 291.255L84.1496 325.123C93.0285 342.011 75.8706 363.087 55.2388 371.898C56.8226 368.861 58.7167 365.997 60.8908 363.35Z" fill="#365B70"/>
<path d="M68.5292 111.496L96.4376 86.9688L145.971 75.1412C145.971 75.1412 163.724 74.0317 173.68 80.5061C190.156 94.9378 184.835 166.266 180.327 183.782C177.873 205.449 182.524 227.125 184.957 238.58C192.472 293.102 95.3967 285.791 78.5209 279.724L62.1602 151.374L68.5292 111.496Z" fill="#0047BA"/>
<path d="M104.191 63.3391C104.191 63.3391 105.707 74.9705 102.671 81.2499C95.8852 89.1412 138.578 110.477 142.528 99.9697C146.821 94.6964 145.885 79.2597 145.885 79.2597L104.191 63.3391Z" fill="#D9A782"/>
<path opacity="0.15" d="M148.524 93.2098C147.286 86.3154 145.885 79.2597 145.885 79.2597L104.191 63.3391C104.191 63.3391 105.707 74.9705 102.671 81.2499C101.538 83.5906 102.298 87.6499 104.411 92.1108L111.084 97.6614C111.06 72.0786 128.628 95.4472 148.524 93.2098Z" fill="#D9A782"/>
<path d="M142.528 99.972L156.205 113.518C156.205 113.518 154.791 89.2874 153.623 78.4717L146.579 75.1435C146.579 75.1435 144.602 94.6848 142.528 99.972Z" fill="#0544A0"/>
<path d="M108.642 12.6028C126.279 0.145087 155.159 16.024 157.668 33.6076C158.981 39.3937 162.988 46.4622 158.562 50.3312C161.855 54.4707 159.292 64.3104 158.605 66.694C159.639 68.6274 159.138 70.8892 157.303 71.3743C154.277 78.9708 159.908 89.1029 147.019 90.3632C113.089 91.7662 74.9203 37.6449 108.642 12.6028Z" fill="#FFCDA8"/>
<path d="M160.679 43.72C159.728 40.7329 158.511 37.1818 157.586 33.2838C142.706 35.2802 128.302 39.9121 115.047 46.9624C116.929 49.1673 126.302 56.7243 136.366 58.4999C144.039 59.853 146.328 54.4208 158.801 50.0121C159.489 49.0988 161.443 46.1674 160.679 43.72Z" fill="#D9A782"/>
<path d="M158.605 66.6929C153.891 57.1595 149.206 52.8495 160.306 47.3592C159.864 48.4223 159.278 49.42 158.565 50.3243C161.855 54.4684 159.292 64.3081 158.605 66.6929Z" fill="#D9A782"/>
<path d="M119.083 52.2112C117.629 56.4331 115.553 62.4676 111.59 57.7328C110.334 56.2834 101.591 46.1581 101.031 58.6612C97.9924 52.3191 95.7367 45.4317 95.5951 38.4688C103.823 42.7127 113.971 44.2283 119.455 44.7598C119.051 47.9081 119.613 50.7862 119.083 52.2112Z" fill="#161616"/>
<path d="M152.08 89.1377C151.281 77.6629 153.409 71.8605 153.409 71.8605C153.542 71.3592 155.67 71.9185 157.314 71.373H157.304C154.65 78.5645 158.539 83.9933 152.08 89.1377Z" fill="#D9A782"/>
<path d="M112.179 69.1346C111.046 69.861 108.423 70.9054 103.313 65.4303C95.0742 57.7317 100.819 47.6679 107.114 54.3918C108.423 56.3797 112.179 69.1346 112.179 69.1346Z" fill="#FFCDA8"/>
<path d="M98.6027 54.5728C98.6027 54.5728 108.915 47.459 115.764 43.7873C129.823 36.3662 145.183 31.7299 161 30.1331C161 30.1331 153.098 12.5402 147.438 5.91382C142.208 -0.22048 126.591 -3.25399 111.926 5.21172C87.1317 20.5092 91.4272 35.2647 98.6027 54.5728Z" fill="#0047BA"/>
<path d="M161 30.133C161.204 30.024 137.113 31.9736 115.05 44.1644C116.932 46.3798 126.306 53.9333 136.369 55.7124C145.936 57.474 160.138 40.5797 179.836 45.0603C179.94 43.619 162.515 29.8325 161 30.133Z" fill="#0544A0"/>
<path d="M103.723 75.14C103.723 75.14 117.232 94.6848 142.529 99.9742L138.816 121.407C138.816 121.407 102.99 96.3884 96.4387 86.9699L103.723 75.14Z" fill="#0544A0"/>
<path d="M0.00115967 283.869L64.7849 321.278V237.002L0.00115967 199.596V283.869Z" fill="#B39372"/>
<path d="M64.7825 237.002V321.278L129.564 283.873V199.596L64.7825 237.002Z" fill="#CCAC88"/>
<path d="M0.00115967 199.596L64.7848 237.002L129.566 199.596L64.7848 162.19L0.00115967 199.596Z" fill="#D9B995"/>
<path d="M35.6709 220.234L100.496 182.809L94.6448 179.429L29.8217 216.864L35.6709 220.234Z" fill="#FFFFEB"/>
<path opacity="0.1" d="M11.6637 206.385L37.5391 221.445L107.796 187.028L64.7825 162.193L11.6637 206.385Z" fill="black"/>
<path d="M35.6663 249.633V220.24L29.8205 216.865V246.261L35.6663 249.633Z" fill="#E6CFB5"/>
<path d="M90.7589 240.558L70.8487 252.047V240.738L90.7589 229.243V240.558Z" fill="#E2E9ED"/>
<path d="M89.7935 231.909L71.8188 242.284V241.39L89.7935 231.016V231.909Z" fill="#758286"/>
<path d="M89.7935 233.836L71.8188 244.21V243.322L89.7935 232.943V233.836Z" fill="#758286"/>
<path d="M89.7935 235.911L71.8188 246.28V245.391L89.7935 235.017V235.911Z" fill="#758286"/>
<path d="M80.8067 242.1L71.8188 247.281V248.18L80.8067 242.986V242.1Z" fill="#758286"/>
<path d="M26.9209 284.065L26.9278 283.758L26.6354 283.591V283.902C26.2283 283.6 25.7236 283.459 25.2185 283.506C24.7135 283.554 24.244 283.787 23.9005 284.16C24.389 284.031 24.8288 284.673 24.9286 285.12C25.2338 284.386 26.1167 285.318 26.1608 285.832C26.4788 285.103 27.3409 286.019 27.4001 286.545C27.7041 285.811 28.5917 286.744 28.6277 287.257C28.7994 286.712 29.4666 287.116 29.6604 287.489C29.1079 286.101 28.1541 284.909 26.9209 284.065Z" fill="black"/>
<path d="M26.6424 291.924L26.9348 292.086L26.9278 286.072L26.6424 285.91V291.924Z" fill="black"/>
<path d="M25.9636 292.602C25.7626 292.473 25.5952 292.297 25.4754 292.09C25.3555 291.883 25.2866 291.651 25.2744 291.412L24.9866 291.255C24.8253 292.211 26.7074 294.087 26.9267 292.374L26.6412 292.211C26.6412 292.641 26.3407 292.823 25.9636 292.602Z" fill="black"/>
<path d="M15.0205 276.884C14.9752 279.117 14.6979 282.52 17.0731 283.762C19.9055 285.302 18.9854 280.614 19.1269 279.255L15.0205 276.884Z" fill="black"/>
<path d="M17.3365 287.296V284.332L16.8585 284.053V287.019C16.2754 286.721 15.6593 286.492 15.0228 286.337V286.617L19.1281 288.989V288.707C18.5691 288.19 17.97 287.718 17.3365 287.296Z" fill="black"/>
<path d="M4.5334 279.723V280.603L10.6414 284.131V283.25L4.5334 279.723Z" fill="black"/>
<path d="M8.62824 281.716L9.43234 282.18V276.128L9.91502 276.41L9.02622 273.423L8.12233 275.375L8.62937 275.666L8.62824 281.716Z" fill="black"/>
<path d="M5.84809 280.116L6.64522 280.58V274.526L7.13604 274.815L6.24373 271.826L5.33984 273.782L5.84809 274.065V280.116Z" fill="black"/>
<path d="M30.866 296.526L22.7205 291.819V280.098L30.866 284.798V296.526ZM22.9351 291.644L30.6525 296.099V284.985L22.9351 280.529V291.644Z" fill="black"/>
<path d="M21.1447 290.92L12.9992 286.211V274.49L21.1447 279.191V290.92ZM13.2185 286.033L20.9243 290.483V279.366L13.2185 274.917V286.033Z" fill="black"/>
<path d="M11.6648 285.441L3.51463 280.741V269.013L11.6648 273.719V285.441ZM3.73974 280.561L11.4444 285.012V273.897L3.73974 269.444V280.561Z" fill="black"/>
<path d="M29.6674 315.828C25.4171 314.385 21.8282 309.756 19.1258 297.307C16.4234 284.859 34.1451 288.309 34.1451 288.309L35.628 292.76C35.628 292.76 40.9922 295.328 42.358 298.215C43.7237 301.101 54.5612 311.104 53.4287 313.078C51.1718 318.315 34.4422 318.263 29.6674 315.828Z" fill="#C7DEEB"/>
<path d="M74.7068 111.494C64.6769 105.394 43.712 136.282 24.9866 168.778C6.26114 201.274 10.1552 205.926 9.91502 213.682C8.8974 246.899 18.8496 299.023 19.1234 300.128C19.1234 300.128 24.2289 301.521 36.3497 290.352C36.3497 290.352 40.5431 222.65 39.9932 216.866C39.9932 216.866 81.026 158.055 87.6376 150.895C94.2492 143.735 88.7515 120.033 74.7068 111.494Z" fill="#0544A0"/>
<path opacity="0.5" d="M37.1562 308.695C39.391 306.426 47.019 314.763 50.9955 315.185C47.7465 318.211 36.3416 317.661 32.8177 316.726C35.0304 314.197 36.2824 310.205 37.1562 308.695Z" fill="#45C7A3"/>
<path d="M190.629 271.796L244.52 249.254L275 152.618L221.112 175.155L190.629 271.796Z" fill="#414E52"/>
<path d="M235.92 171.403L238.114 164.452L260.232 155.2L258.039 162.152L235.92 171.403Z" fill="#038093"/>
<path d="M255.194 205.562C252.774 207.341 249.552 211.401 254.568 213.337C251.783 214.774 248.662 217.863 252.579 220.954C249.337 221.052 246.197 224.837 249.6 227.589C249.6 227.589 247.173 229.812 246.971 231.251C246.769 232.69 253.664 235.001 255.308 234.126C256.952 233.251 262.106 229.563 262.173 227.627C263.199 227.173 264.112 226.499 264.848 225.652C265.584 224.805 266.124 223.806 266.431 222.726C268.451 222.094 267.628 212.862 266.943 212.209C276.07 209.752 261.721 198.008 260.666 197.355L255.194 205.562Z" fill="#CEE5EF"/>
<path opacity="0.5" d="M262.312 203.544C261.418 204.24 258.799 204.429 255.966 204.411L259.921 198.477C261.481 199.831 263.903 202.311 262.312 203.544Z" fill="#CEE5EF"/>
<path opacity="0.5" d="M248.196 224.256C248.281 221.587 252.584 220.958 252.584 220.958C249.576 218.618 250.465 215.639 254.022 213.661C258.365 213.55 262.69 213.064 266.948 212.208C267.645 212.924 268.446 222.085 266.437 222.725C266.13 223.805 265.59 224.803 264.854 225.65C264.118 226.497 263.204 227.172 262.178 227.626C262.112 229.566 256.957 233.253 255.314 234.125C253.671 234.996 246.78 232.679 246.977 231.25C247.174 229.822 249.606 227.588 249.606 227.588C249.606 227.588 248.11 226.923 248.196 224.256Z" fill="#CEE5EF"/>
<path d="M160.073 58.841C156.9 59.5953 156.176 55.3376 153.091 56.7174C133.01 70.8752 127.208 62.514 109.436 55.5963C111.677 60.0062 124.765 64.4032 128.095 65.906C129.719 68.372 134.163 79.3166 130.371 84.8114C116.653 79.6821 107.038 68.7179 107.038 68.7179C117.365 83.2367 134.716 92.7108 151.054 90.3574C162.319 84.0037 159.876 65.2793 160.073 58.841Z" fill="#E6F6FF"/>
<path d="M130.867 66.1289C129.266 66.8426 132.663 73.0918 132.723 75.2967C132.723 75.2967 131.759 68.3187 131.507 67.7536L134.101 69.5395L132.194 67.1837C134.639 66.9656 137.057 66.52 139.419 65.8527C136.585 66.2392 133.719 66.3318 130.867 66.1289Z" fill="#C7DEEB"/>
<path d="M131.894 85.734C133.46 86.9382 135.219 87.8678 137.096 88.4832C137.096 88.4832 133.374 86.5382 132.95 85.734L134.848 84.8463C134.848 84.8463 132.907 85.5658 132.907 84.8463C132.907 84.1268 133.203 79.2643 133.203 79.2643C133.203 79.2643 132.698 82.9013 132.526 83.6196C132.354 84.338 131.429 85.0157 131.894 85.734Z" fill="#C7DEEB"/>
<path d="M160.077 58.8399C157.086 59.4596 156.523 56.266 153.987 56.4934C155.249 60.5379 156.176 64.6798 156.756 68.8769C152.125 71.546 137.096 74.5307 137.096 74.5307C143.83 74.1094 150.486 72.8622 156.916 70.8172C157.132 74.3195 156.444 76.2715 155.488 79.7773C149.549 80.6871 138.006 80.151 138.006 80.151C143.672 80.9972 149.409 81.2694 155.13 80.9633C154.16 84.2233 152.822 87.3618 151.14 90.3179C162.314 83.7995 159.875 65.3363 160.077 58.8399Z" fill="#C7DEEB"/>
<path d="M169.025 128.604C168.643 128.819 168.193 128.876 167.77 128.765C167.544 128.687 167.337 128.562 167.162 128.398C166.988 128.234 166.85 128.035 166.758 127.814L165.781 125.913C165.776 125.903 165.775 125.89 165.779 125.879C165.783 125.868 165.791 125.858 165.801 125.853L166.539 125.473C166.549 125.468 166.561 125.467 166.572 125.47C166.583 125.473 166.593 125.481 166.598 125.491L167.559 127.36C167.653 127.586 167.828 127.768 168.05 127.871C168.144 127.907 168.244 127.922 168.345 127.915C168.445 127.908 168.542 127.878 168.63 127.829C168.72 127.787 168.8 127.725 168.864 127.648C168.928 127.571 168.975 127.481 169 127.385C169.044 127.145 168.999 126.897 168.871 126.689L167.911 124.819C167.905 124.808 167.904 124.796 167.908 124.785C167.912 124.773 167.92 124.764 167.93 124.759L168.668 124.38C168.678 124.375 168.69 124.374 168.701 124.377C168.712 124.38 168.721 124.388 168.726 124.398L169.703 126.3C169.829 126.503 169.91 126.731 169.941 126.968C169.971 127.205 169.951 127.446 169.882 127.675C169.728 128.084 169.42 128.418 169.025 128.604Z" fill="white"/>
<path d="M173.551 123.989L171.248 125.789C171.238 125.797 171.232 125.807 171.23 125.819C171.228 125.831 171.231 125.843 171.238 125.853L171.248 125.862C171.404 125.963 171.583 126.02 171.769 126.029C171.98 126.043 172.192 125.997 172.379 125.897C172.546 125.816 172.689 125.693 172.793 125.54C172.877 125.43 172.931 125.301 172.95 125.165L172.961 125.091C172.965 125.07 172.975 125.05 172.991 125.036C173.007 125.022 173.027 125.014 173.049 125.014H173.776C173.8 125.014 173.822 125.023 173.839 125.04C173.856 125.057 173.865 125.08 173.865 125.103V125.131C173.853 125.231 173.832 125.33 173.804 125.427C173.766 125.572 173.713 125.711 173.644 125.844C173.553 126.004 173.441 126.15 173.31 126.279C173.151 126.442 172.966 126.577 172.763 126.679C172.526 126.813 172.264 126.896 171.994 126.924C171.723 126.951 171.45 126.923 171.191 126.839C170.939 126.758 170.707 126.627 170.507 126.454C170.308 126.28 170.146 126.068 170.03 125.83C169.905 125.598 169.828 125.342 169.804 125.079C169.78 124.816 169.81 124.551 169.892 124.3C169.971 124.047 170.1 123.813 170.273 123.612C170.445 123.411 170.658 123.247 170.896 123.132C171.126 123.005 171.379 122.928 171.641 122.903C171.902 122.878 172.165 122.906 172.415 122.987C172.905 123.139 173.316 123.479 173.558 123.932C173.564 123.941 173.566 123.952 173.565 123.962C173.564 123.973 173.559 123.982 173.551 123.989ZM171.296 123.905C171.054 124.023 170.864 124.227 170.764 124.478C170.674 124.713 170.674 124.973 170.764 125.209C170.768 125.22 170.776 125.229 170.787 125.234C170.797 125.24 170.809 125.241 170.821 125.237L170.833 125.229L172.38 124.019C172.39 124.012 172.396 124.002 172.398 123.99C172.399 123.978 172.396 123.966 172.389 123.957L172.38 123.948C172.223 123.836 172.037 123.772 171.845 123.765C171.652 123.757 171.461 123.806 171.296 123.906V123.905Z" fill="white"/>
<path d="M162.912 131.305L163.066 131.604C163.069 131.61 163.071 131.615 163.071 131.621C163.072 131.627 163.071 131.633 163.069 131.639C163.067 131.644 163.064 131.65 163.06 131.654C163.057 131.658 163.052 131.662 163.046 131.665L162.31 132.043C162.299 132.048 162.287 132.049 162.276 132.046C162.264 132.043 162.255 132.035 162.249 132.024L159.339 126.36C159.337 126.355 159.335 126.349 159.335 126.344C159.334 126.338 159.335 126.332 159.337 126.326C159.339 126.321 159.342 126.316 159.345 126.312C159.349 126.307 159.354 126.304 159.359 126.301L160.096 125.92C160.101 125.918 160.107 125.916 160.112 125.915C160.118 125.915 160.124 125.915 160.13 125.917C160.135 125.919 160.141 125.921 160.145 125.925C160.15 125.929 160.153 125.934 160.156 125.939L161.432 128.418C161.451 128.365 161.473 128.313 161.499 128.263C161.573 128.146 161.661 128.037 161.76 127.94C161.908 127.783 162.082 127.653 162.275 127.555C162.498 127.434 162.744 127.36 162.997 127.339C163.251 127.317 163.506 127.349 163.746 127.431C163.997 127.517 164.228 127.653 164.425 127.83C164.622 128.007 164.781 128.222 164.894 128.462C165.023 128.693 165.105 128.947 165.134 129.21C165.163 129.474 165.139 129.74 165.063 129.994C164.991 130.237 164.868 130.463 164.704 130.657C164.539 130.85 164.336 131.008 164.107 131.118C163.921 131.216 163.72 131.284 163.512 131.319C163.364 131.349 163.212 131.355 163.063 131.336L162.912 131.305ZM162.036 128.999C161.992 129.145 161.978 129.298 161.995 129.45C162.013 129.601 162.061 129.747 162.138 129.879C162.2 130.018 162.291 130.142 162.403 130.245C162.516 130.347 162.648 130.425 162.792 130.474C162.93 130.517 163.075 130.532 163.218 130.517C163.362 130.503 163.501 130.459 163.627 130.389C163.758 130.329 163.876 130.243 163.972 130.135C164.069 130.028 164.142 129.902 164.188 129.765C164.232 129.619 164.246 129.466 164.228 129.315C164.211 129.164 164.162 129.018 164.086 128.886C164.023 128.748 163.933 128.624 163.82 128.521C163.708 128.419 163.576 128.341 163.432 128.291C163.294 128.249 163.149 128.234 163.006 128.249C162.863 128.263 162.724 128.306 162.597 128.376C162.467 128.437 162.351 128.524 162.255 128.631C162.16 128.738 162.087 128.863 162.04 128.999H162.036Z" fill="white"/>
<path d="M166.234 129.913L163.35 124.301C163.346 124.291 163.345 124.279 163.348 124.268C163.352 124.257 163.36 124.248 163.37 124.242L164.108 123.863C164.119 123.857 164.131 123.857 164.142 123.86C164.154 123.864 164.163 123.872 164.169 123.883L167.052 129.495C167.055 129.5 167.056 129.506 167.057 129.511C167.057 129.517 167.057 129.523 167.055 129.529C167.053 129.535 167.05 129.54 167.046 129.544C167.042 129.549 167.038 129.552 167.032 129.555L166.294 129.933C166.284 129.939 166.271 129.939 166.26 129.936C166.249 129.932 166.239 129.924 166.234 129.913Z" fill="white"/>
<path d="M171.704 119.205L172.148 120.068C172.155 120.081 172.164 120.092 172.176 120.101C172.188 120.109 172.202 120.115 172.217 120.117L173.778 120.302C173.796 120.305 173.814 120.302 173.83 120.294C173.845 120.285 173.858 120.273 173.867 120.257L174.28 119.504C174.285 119.494 174.286 119.482 174.283 119.471C174.28 119.46 174.272 119.45 174.262 119.445L174.246 119.439L171.749 119.141C171.737 119.14 171.725 119.144 171.716 119.152C171.707 119.16 171.701 119.171 171.7 119.183C171.699 119.19 171.7 119.198 171.704 119.205Z" fill="white"/>
<path d="M175.041 125.501L179.392 123.263C179.412 123.252 179.427 123.234 179.435 123.213C179.442 123.191 179.441 123.167 179.432 123.147L177.751 119.877C177.748 119.871 177.743 119.865 177.737 119.861C177.731 119.857 177.725 119.855 177.718 119.853L176.113 119.662C176.095 119.66 176.078 119.663 176.062 119.671C176.046 119.679 176.033 119.692 176.025 119.707L175.611 120.459C175.608 120.464 175.606 120.47 175.605 120.476C175.605 120.482 175.605 120.488 175.607 120.494C175.609 120.499 175.612 120.505 175.615 120.509C175.619 120.514 175.624 120.518 175.629 120.521H175.644L177.121 120.698C177.129 120.699 177.136 120.701 177.142 120.705C177.148 120.709 177.153 120.715 177.156 120.721L178.22 122.792C178.23 122.812 178.231 122.836 178.223 122.857C178.216 122.879 178.201 122.897 178.181 122.908L177.309 123.356C177.289 123.365 177.265 123.367 177.244 123.359C177.222 123.352 177.204 123.337 177.193 123.317L176.265 121.509L175.705 121.443L175.442 121.92L176.371 123.736C176.38 123.757 176.381 123.781 176.374 123.802C176.367 123.824 176.351 123.842 176.331 123.852L175.46 124.3C175.439 124.31 175.415 124.311 175.394 124.304C175.372 124.296 175.354 124.281 175.344 124.261L174.275 122.181C174.272 122.175 174.27 122.168 174.27 122.16C174.27 122.153 174.272 122.146 174.275 122.139L176.654 117.811C176.66 117.798 176.664 117.784 176.664 117.77C176.664 117.755 176.66 117.741 176.654 117.728L176.215 116.874C176.209 116.864 176.2 116.857 176.189 116.854C176.178 116.85 176.166 116.852 176.156 116.857C176.148 116.861 176.141 116.867 176.137 116.874L173.236 122.131C173.233 122.138 173.231 122.145 173.231 122.152C173.231 122.16 173.233 122.167 173.236 122.173L174.922 125.455C174.932 125.476 174.95 125.492 174.972 125.5C174.993 125.508 175.017 125.507 175.038 125.498L175.041 125.501Z" fill="white"/>
</g>
<defs>
<clipPath id="clip0_3_21">
<rect width="275" height="562" fill="white"/>
</clipPath>
</defs>
</svg>
