<?xml version="1.0" encoding="utf-8"?>
<!-- Generator: Adobe Illustrator 25.3.1, SVG Export Plug-In . SVG Version: 6.00 Build 0)  -->
<svg version="1.1" id="Layer_1" xmlns="http://www.w3.org/2000/svg" xmlns:xlink="http://www.w3.org/1999/xlink" x="0px" y="0px"
	 viewBox="0 0 314.53 278" style="enable-background:new 0 0 314.53 278;" xml:space="preserve">
<style type="text/css">
	.st0{fill-rule:evenodd;clip-rule:evenodd;}
</style>
<g>
	<path class="st0" d="M175.63,10.6l136.01,235.58c3.85,6.66,3.85,14.55,0,21.21c-3.85,6.66-10.68,10.61-18.37,10.61H21.26
		c-7.69,0-14.52-3.94-18.37-10.61c-3.85-6.66-3.85-14.55,0-21.21L138.9,10.6C142.74,3.94,149.57,0,157.27,0S171.79,3.94,175.63,10.6
		L175.63,10.6z M167.28,15.43c-2.12-3.68-5.77-5.78-10.02-5.78c-4.25,0-7.9,2.11-10.02,5.78L11.23,251c-2.12,3.68-2.12,7.89,0,11.57
		c2.12,3.68,5.77,5.79,10.02,5.79h272.02c4.25,0,7.9-2.11,10.02-5.79c2.12-3.68,2.12-7.89,0-11.57L167.28,15.43z"/>
	<g>
		<path class="st0" d="M169.52,223.76c0,6.77-5.49,12.26-12.25,12.26c-6.77,0-12.26-5.49-12.26-12.26s5.49-12.25,12.26-12.25
			C164.03,211.51,169.52,216.99,169.52,223.76z"/>
		<path class="st0" d="M170.95,101.72l-11.78,93.13c-0.12,0.97-0.93,1.68-1.9,1.68c-0.98,0-1.79-0.71-1.91-1.68l-11.78-93.13
			c-0.45-3.59,0.55-6.86,2.95-9.59c2.4-2.71,5.52-4.12,9.15-4.12h3.18c3.62,0,6.74,1.41,9.14,4.12
			C170.4,94.85,171.4,98.13,170.95,101.72z"/>
	</g>
</g>
</svg>
