<svg width="65" height="53" viewBox="0 0 65 53" fill="none" xmlns="http://www.w3.org/2000/svg">
<g clip-path="url(#clip0_17_472)">
<path d="M44.652 5.052H31.283V7.38H44.652V5.052Z" fill="black"/>
<path d="M2.32898 50.07V21.352H1.16406V19.024H2.32898V7.38H4.86597V5.052H0V52.399H36.98C36.3526 51.6616 35.7747 50.8836 35.25 50.07H2.32898Z" fill="black"/>
<path d="M27.398 5.052H8.75V7.38H27.398V5.052Z" fill="black"/>
<path d="M54.8939 7.38V14.568C55.6883 14.7813 56.4663 15.0513 57.2219 15.376V5.052H51.594V7.38H54.8939Z" fill="black"/>
<path d="M47.7099 5.052H44.6519V7.38H47.7099V5.052Z" fill="black"/>
<path d="M14.739 30.588H8.75V33.382H14.739V30.588Z" fill="black"/>
<path d="M14.739 40.368H8.75V43.162H14.739V40.368Z" fill="black"/>
<path d="M26.3459 33.382H31.486C31.5966 32.4423 31.7595 31.5095 31.974 30.588H26.3459V33.382Z" fill="black"/>
<path d="M26.3459 43.162H32.156C31.9163 42.2419 31.7283 41.3091 31.593 40.368H26.3459V43.162Z" fill="black"/>
<path d="M8.74999 0H4.86499V5.052H8.74999V0Z" fill="black"/>
<path d="M8.74999 7.38098H4.86499V12.419H8.74999V7.38098Z" fill="black"/>
<path d="M8.74999 5.052H4.86499V7.38H8.74999V5.052Z" fill="black"/>
<path d="M51.595 7.38098H47.71V12.419H51.595V7.38098Z" fill="black"/>
<path d="M51.595 0H47.71V5.052H51.595V0Z" fill="black"/>
<path d="M51.595 5.052H47.71V7.38H51.595V5.052Z" fill="black"/>
<path d="M31.2829 7.38098H27.3979V12.419H31.2829V7.38098Z" fill="black"/>
<path d="M31.2829 0H27.3979V5.052H31.2829V0Z" fill="black"/>
<path d="M31.2829 5.052H27.3979V7.38H31.2829V5.052Z" fill="black"/>
<path d="M2.33008 19.024V21.353H33.52C34.1596 20.5261 34.86 19.748 35.6151 19.025L2.33008 19.024Z" fill="black"/>
<path d="M2.32806 19.023H1.16406V21.352H2.32806V19.023Z" fill="black"/>
<path d="M46.026 26.522C49.8685 26.5296 53.583 27.9038 56.5053 30.3988C59.4276 32.8939 61.3672 36.3471 61.977 40.141C62.1235 41.2448 62.1903 42.3577 62.177 43.471C62.1636 43.8715 62.0531 44.2627 61.8549 44.611C61.5469 45.193 61.1549 45.731 60.7969 46.285C60.6059 46.579 60.363 46.785 59.987 46.631C59.611 46.477 59.575 46.161 59.602 45.794C59.7829 44.0519 59.7692 42.2951 59.561 40.556C59.1353 37.8948 57.9331 35.4187 56.1053 33.4382C54.2775 31.4578 51.9055 30.0613 49.2869 29.424C46.8971 28.808 44.3839 28.861 42.0222 29.5772C39.6604 30.2935 37.5411 31.6454 35.8959 33.485C35.745 33.6565 35.5535 33.7874 35.3389 33.866C35.2593 33.8865 35.1761 33.8883 35.0957 33.8713C35.0152 33.8544 34.9397 33.8191 34.8752 33.7682C34.8106 33.7173 34.7587 33.6521 34.7235 33.5779C34.6882 33.5036 34.6706 33.4222 34.6719 33.34C34.6847 32.6815 34.7668 32.0263 34.9169 31.385C35.0581 30.9692 35.3144 30.6019 35.656 30.326C38.1904 28.1655 41.3445 26.8642 44.665 26.609C45.12 26.571 45.574 26.551 46.026 26.522Z" fill="#0047BA"/>
<path d="M57.3061 43.887C57.0861 45.559 56.8721 47.411 56.5891 49.253C56.3781 50.625 55.4971 51.092 54.4021 51.466C53.9651 51.616 53.6021 51.166 53.7101 50.677C53.9691 49.449 54.2891 48.228 54.4601 46.988C54.8088 45.0443 54.853 43.0583 54.5911 41.101C54.2092 39.0851 53.1289 37.2682 51.5402 35.9698C49.9515 34.6714 47.956 33.9745 45.9043 34.0016C43.8527 34.0287 41.8762 34.7781 40.3223 36.118C38.7684 37.4579 37.7366 39.3027 37.4081 41.328C37.3611 41.596 37.3391 41.868 37.3081 42.139C37.3028 42.2772 37.2477 42.4088 37.1531 42.5097C37.0585 42.6106 36.9307 42.6739 36.7931 42.688C36.6574 42.7197 36.5148 42.6985 36.3941 42.6289C36.2734 42.5593 36.1836 42.4464 36.1431 42.313C35.8524 41.5659 35.6072 40.8018 35.4091 40.025C35.3368 39.6037 35.3871 39.1705 35.5541 38.777C36.2563 36.8059 37.5139 35.0802 39.1751 33.8079C40.8363 32.5357 42.8301 31.7713 44.9161 31.607C47.7142 31.3019 50.5235 32.0737 52.7731 33.7654C55.0227 35.4572 56.5438 37.9421 57.0271 40.715C57.2141 41.688 57.2081 42.698 57.3061 43.887Z" fill="#0047BA"/>
<path d="M46.8619 21.55C53.4299 21.775 59.3149 24.838 63.5859 30.925C64.1731 31.7421 64.4852 32.7248 64.4769 33.731C64.4769 34.223 64.4669 34.716 64.4769 35.209C64.4769 35.574 64.3619 35.859 63.9769 35.936C63.5919 36.013 63.3769 35.791 63.2369 35.456C62.536 33.7648 61.5777 32.1922 60.396 30.794C57.7053 27.5579 54.0022 25.3233 49.8849 24.4512C45.7676 23.5792 41.4766 24.1206 37.705 25.988C37.647 26.017 37.589 26.046 37.531 26.074C37.4137 26.145 37.2761 26.175 37.1399 26.1591C37.0037 26.1433 36.8767 26.0825 36.7789 25.9864C36.6811 25.8903 36.618 25.7644 36.5997 25.6285C36.5815 25.4926 36.609 25.3545 36.678 25.236C36.9459 24.6074 37.3457 24.0437 37.8506 23.5832C38.3554 23.1227 38.9535 22.7761 39.604 22.567C41.9528 21.8392 44.4036 21.4958 46.8619 21.55Z" fill="#0047BA"/>
<path d="M52.242 43.741C52.1797 46.3239 51.7109 48.8809 50.8529 51.318C50.5019 52.274 50.2219 52.473 49.2179 52.454C49.0499 52.454 48.8809 52.454 48.7129 52.439C48.6011 52.4482 48.4888 52.4267 48.3883 52.3767C48.2878 52.3268 48.2029 52.2503 48.1427 52.1556C48.0825 52.0609 48.0493 51.9515 48.0466 51.8394C48.044 51.7272 48.0722 51.6164 48.1279 51.519C48.888 49.7969 49.37 47.9652 49.5559 46.092C49.723 44.7433 49.7565 43.3813 49.6559 42.026C49.5117 41.1039 49.0169 40.2732 48.2747 39.7075C47.5324 39.1417 46.6003 38.8847 45.673 38.99C44.7533 39.0779 43.8984 39.5021 43.2722 40.1814C42.6461 40.8607 42.2927 41.7473 42.2799 42.671C42.3286 44.5149 42.0381 46.3521 41.423 48.091C41.117 48.882 40.703 48.975 40.107 48.381C39.932 48.207 39.758 48.033 39.594 47.849C39.4432 47.6953 39.3373 47.5032 39.2877 47.2937C39.2382 47.0841 39.247 46.865 39.313 46.66C39.6641 45.3837 39.8287 44.0634 39.8019 42.74C39.8062 41.1113 40.4493 39.5493 41.5929 38.3896C42.7365 37.23 44.2894 36.5652 45.9179 36.5383C47.5463 36.5113 49.1205 37.1242 50.3019 38.2454C51.4833 39.3665 52.1777 40.9063 52.236 42.534C52.25 42.936 52.242 43.339 52.242 43.741Z" fill="#0047BA"/>
<path d="M46.0349 19.023C45.2349 19.074 44.4349 19.115 43.6349 19.179C43.4818 19.2157 43.3206 19.1942 43.1825 19.1186C43.0444 19.043 42.9395 18.9187 42.8879 18.77C42.8323 18.6218 42.8374 18.4577 42.9022 18.3133C42.967 18.1688 43.0862 18.0559 43.2339 17.999C44.9565 16.9084 47.0082 16.4591 49.0289 16.73C51.506 17.0749 53.9314 17.722 56.251 18.657C58.2891 19.5693 60.0012 21.0802 61.1599 22.989C61.2548 23.1076 61.3002 23.2583 61.2866 23.4097C61.273 23.561 61.2015 23.7012 61.0869 23.801C60.9672 23.9141 60.8076 23.9752 60.643 23.9711C60.4783 23.967 60.3218 23.8979 60.2079 23.779C58.3806 22.409 56.3648 21.3106 54.2229 20.518C51.5996 19.5533 48.8298 19.0476 46.0349 19.023Z" fill="#0047BA"/>
<path d="M47.263 43.808C47.2011 46.2503 46.6513 48.6554 45.646 50.882C45.311 51.593 45.1 51.673 44.373 51.343C44.102 51.22 43.831 51.094 43.573 50.943C43.4943 50.9096 43.4237 50.8595 43.3662 50.7962C43.3087 50.733 43.2657 50.658 43.2399 50.5764C43.2141 50.4949 43.2064 50.4088 43.2171 50.3239C43.2278 50.2391 43.2568 50.1576 43.302 50.085C44.3497 47.8181 44.858 45.3393 44.787 42.843C44.7707 42.6712 44.7904 42.4978 44.8448 42.334C44.8992 42.1702 44.9871 42.0195 45.1029 41.8916C45.2188 41.7636 45.36 41.6612 45.5176 41.5908C45.6752 41.5204 45.8459 41.4837 46.0185 41.4828C46.1911 41.482 46.3619 41.5171 46.5202 41.5859C46.6785 41.6548 46.8207 41.7558 46.9378 41.8827C47.0549 42.0095 47.1442 42.1593 47.2002 42.3226C47.2562 42.4859 47.2776 42.659 47.263 42.831C47.265 43.16 47.263 43.483 47.263 43.808Z" fill="#0047BA"/>
</g>
<defs>
<clipPath id="clip0_17_472">
<rect width="64.478" height="52.455" fill="white"/>
</clipPath>
</defs>
</svg>
