<svg width="62" height="62" viewBox="0 0 62 62" fill="none" xmlns="http://www.w3.org/2000/svg">
<g clip-path="url(#clip0_341_1110)">
<path d="M53.7166 52.1848H53.71L53.7166 52.1782V52.1848Z" fill="black"/>
<path d="M49.0253 38.4067C48.7187 38.0863 48.3841 37.7938 48.0255 37.5328C47.6869 37.2855 47.3245 37.0726 46.9435 36.8973C46.5754 36.7281 46.1905 36.5981 45.7952 36.5093C45.0069 36.3355 44.1901 36.3355 43.4018 36.5093C43.0044 36.596 42.6173 36.7243 42.2469 36.892C41.8609 37.0669 41.4924 37.278 41.1463 37.5222C40.7782 37.7833 40.4331 38.0752 40.1147 38.3948L39.0791 39.4262L38.0435 40.4563L37.0093 41.4865L35.9737 42.5166L35.7178 42.3842L35.4632 42.2518L35.2126 42.1193L34.9646 41.9869L34.6159 41.8122C34.5019 41.7552 34.3905 41.697 34.2818 41.64C34.173 41.5831 34.0656 41.5262 33.9635 41.4679C33.8614 41.4097 33.762 41.3527 33.6665 41.2931C32.6941 40.6752 31.7456 40.0132 30.821 39.3071C29.8963 38.6009 28.9854 37.8387 28.0881 37.0204C27.1935 36.2066 26.3135 35.3389 25.4481 34.4173C24.5827 33.4958 23.7274 32.5169 22.8823 31.4806C22.4726 30.9629 22.096 30.4677 21.75 29.9857C21.4039 29.5038 21.087 29.0377 20.7979 28.5796C20.5088 28.1215 20.245 27.6753 20.0023 27.2317C19.7597 26.7882 19.5422 26.3473 19.3393 25.9077C19.6045 25.6632 19.8697 25.4156 20.1349 25.1649C20.4001 24.9142 20.6556 24.6644 20.9013 24.4155C21.1546 24.1652 21.4025 23.915 21.6492 23.6661L22.3824 22.9233L22.6582 22.6465L22.9394 22.3764L23.2152 22.0971C23.3066 22.003 23.3981 21.9117 23.491 21.819C24.1349 21.1893 24.6592 20.4482 25.0384 19.6317C25.3782 18.8984 25.5541 18.1001 25.5541 17.2921C25.5541 16.4841 25.3782 15.6858 25.0384 14.9525C24.6593 14.1355 24.135 13.394 23.491 12.7638L22.5959 11.8714L21.7009 10.9777L20.8072 10.0853L19.9121 9.19153L19.6058 8.88567L19.2982 8.57585C19.1961 8.47125 19.094 8.36797 18.9932 8.26337C18.8925 8.15877 18.7917 8.05417 18.6936 7.94957C18.4973 7.74699 18.2958 7.54176 18.0969 7.33654C17.898 7.13131 17.6925 6.9274 17.4869 6.72218C17.2814 6.51695 17.0732 6.31437 16.8637 6.11311C16.6542 5.91186 16.4434 5.7159 16.2299 5.51464C15.9224 5.20941 15.5888 4.93162 15.2328 4.68446C14.8947 4.44932 14.5346 4.24756 14.1574 4.08202C13.7912 3.91835 13.4091 3.79278 13.0171 3.70731C12.6286 3.62516 12.2327 3.58389 11.8356 3.58418C11.4346 3.58349 11.0346 3.62476 10.6422 3.70731C10.2477 3.79092 9.8626 3.91378 9.49263 4.07407C9.10935 4.23999 8.74263 4.4417 8.39737 4.67652C8.03314 4.92424 7.69028 5.20193 7.37239 5.5067V5.51332H7.36576V5.51994L6.25194 6.64273L5.1368 7.7642L4.02297 8.887L2.90916 10.0085C2.4985 10.4174 2.12324 10.8604 1.78738 11.3325C1.13222 12.2533 0.649715 13.2851 0.363281 14.3778C0.210178 14.9446 0.106803 15.5237 0.054328 16.1084C-0.0206751 17.0409 -0.018014 17.978 0.0622839 18.9101C0.136661 19.7886 0.266422 20.6615 0.450795 21.5237C0.625824 22.3526 0.83798 23.1351 1.06074 23.8554C1.28351 24.5757 1.51555 25.2364 1.73169 25.819C2.26208 27.2489 2.85877 28.6524 3.52839 30.0427C4.198 31.4329 4.94055 32.8086 5.76531 34.183C6.59007 35.5574 7.49703 36.9317 8.49284 38.3167C9.48865 39.7016 10.5733 41.0972 11.7561 42.5166C13.1781 44.2133 14.6869 45.8357 16.2763 47.3772C17.8452 48.8984 19.4939 50.3352 21.2156 51.6816C22.9282 53.0222 24.712 54.2695 26.5593 55.4181C28.4111 56.5712 30.3237 57.624 32.2888 58.572C33.042 58.9282 33.8588 59.3016 34.7299 59.6643C35.6011 60.0271 36.5266 60.3807 37.4986 60.6998C38.4994 61.0288 39.5175 61.3029 40.5483 61.5207C41.6275 61.7487 42.7215 61.9 43.8222 61.9735L44.0317 61.9828C44.1006 61.9828 44.1709 61.9894 44.2412 61.9907L44.448 61.9973H44.6482C45.3793 61.9994 46.1089 61.9311 46.8268 61.7934C47.5096 61.6617 48.1764 61.4575 48.8158 61.1844C49.4496 60.9121 50.052 60.572 50.6125 60.1701C51.1893 59.7521 51.7224 59.277 52.2037 58.7521C52.2063 58.7452 52.2104 58.7389 52.2156 58.7335L52.2288 58.719L52.2434 58.7044C52.2486 58.6991 52.2527 58.6928 52.2554 58.6859C52.4269 58.4802 52.6036 58.2785 52.7858 58.0808C52.9674 57.8822 53.1557 57.6836 53.348 57.4929C53.5402 57.3022 53.7378 57.1036 53.938 56.909C54.1382 56.7144 54.3424 56.5118 54.5493 56.3185C54.6899 56.1861 54.8317 56.0537 54.9736 55.9107C55.1155 55.7677 55.2587 55.6339 55.4006 55.4936L55.8275 55.0672C55.969 54.9225 56.1104 54.7768 56.2519 54.6303C56.5666 54.3052 56.8532 53.9539 57.1084 53.5803C57.3496 53.2286 57.5569 52.8548 57.7277 52.4642C57.8926 52.0896 58.0188 51.6992 58.1042 51.299C58.1875 50.9072 58.2297 50.5078 58.2302 50.1073C58.2293 49.7034 58.1849 49.3008 58.0976 48.9064C58.0103 48.5072 57.8818 48.1181 57.7144 47.7452C57.5398 47.3591 57.3285 46.9907 57.0832 46.645C56.8228 46.2779 56.5304 45.9345 56.2094 45.6188L54.4114 43.8168L52.6227 42.0121L50.8246 40.2087L49.0253 38.4067ZM53.7166 52.1848C53.5893 52.3225 53.4607 52.4575 53.3307 52.5899C53.1981 52.7223 53.0655 52.8548 52.9329 52.9872L52.5351 53.3844L52.1188 53.7882L51.4783 54.4052C51.2649 54.6144 51.0527 54.8263 50.8405 55.0434C50.6284 55.2606 50.4176 55.4817 50.2081 55.7054C49.9986 55.9292 49.793 56.1649 49.5901 56.4032C49.2746 56.7456 48.9259 57.0561 48.5493 57.33C48.1903 57.5881 47.8039 57.8057 47.397 57.9788C46.983 58.1531 46.5513 58.2818 46.1095 58.3628C45.6322 58.4491 45.1479 58.4912 44.6628 58.4886H44.3618H44.2093L44.0595 58.482C43.0986 58.4189 42.1436 58.2861 41.202 58.0848C40.2904 57.8827 39.3905 57.6312 38.5063 57.3314C37.6404 57.0454 36.813 56.7263 36.032 56.3979C35.251 56.0695 34.5151 55.7359 33.8376 55.4075C31.9891 54.5123 30.1899 53.5191 28.4475 52.4324C26.7066 51.3488 25.0246 50.1736 23.4087 48.9117C21.7858 47.6426 20.2313 46.2884 18.7519 44.8548C17.253 43.4023 15.8306 41.8732 14.4902 40.2736C13.3729 38.9302 12.3457 37.6061 11.4087 36.3015C10.4752 35.0026 9.61992 33.7103 8.84422 32.418C8.06853 31.1258 7.36841 29.8375 6.74123 28.5359C6.11404 27.2344 5.54785 25.9236 5.05989 24.5889C4.75491 23.7733 4.499 23.0001 4.2895 22.2705C4.08908 21.5789 3.924 20.8776 3.79491 20.1692C3.67912 19.5279 3.60296 18.8801 3.56684 18.2295C3.53393 17.6188 3.54235 17.0066 3.59203 16.397C3.62279 16.0257 3.68489 15.6576 3.77767 15.2967C3.95391 14.6009 4.25931 13.9443 4.67801 13.361C4.89412 13.0575 5.13589 12.7731 5.40066 12.5109L6.51714 11.3948L7.63493 10.2799L8.75141 9.16373L9.86788 8.04755C10.0211 7.90403 10.1842 7.7713 10.3558 7.65034C10.5133 7.53903 10.6801 7.44157 10.8544 7.35904C11.0154 7.28278 11.1838 7.22333 11.3569 7.18162C11.5214 7.14125 11.6901 7.1208 11.8595 7.12072C12.0587 7.12094 12.2568 7.14902 12.4482 7.20413C12.629 7.25553 12.8037 7.32611 12.9693 7.41465C13.1253 7.5013 13.2743 7.60003 13.4149 7.70992C13.5407 7.80976 13.6607 7.91674 13.7742 8.03034L13.7848 8.03961L13.7941 8.0502L13.8034 8.05947L13.814 8.06874C14.0129 8.25587 14.2105 8.44432 14.4067 8.6341C14.6029 8.82389 14.7983 9.01631 14.9928 9.21139C15.1881 9.40559 15.3835 9.60287 15.5789 9.80324L16.1769 10.4163L16.4832 10.7314L16.7948 11.0465L17.1077 11.3643L17.4206 11.686L18.3117 12.5785L19.2054 13.4709L20.1004 14.3646L20.9941 15.257C21.3063 15.5563 21.5702 15.902 21.7765 16.2818C21.9469 16.5892 22.0363 16.9348 22.0363 17.2861C22.0363 17.6375 21.9469 17.983 21.7765 18.2904C21.5698 18.6696 21.3059 19.0148 20.9941 19.3139L20.7117 19.5959C20.6176 19.6899 20.5247 19.7853 20.4319 19.8793L20.1548 20.1639L19.8724 20.4407C19.5966 20.7214 19.3239 20.9981 19.0542 21.2708C18.789 21.5357 18.5132 21.8111 18.2414 22.0759C17.9696 22.3407 17.6991 22.6055 17.4233 22.8624C17.1475 23.1192 16.8677 23.3774 16.5826 23.633L16.5641 23.6502L16.5455 23.6661C16.5399 23.6706 16.5346 23.6754 16.5296 23.6806C16.5247 23.6857 16.5207 23.6915 16.5176 23.6978C16.2682 23.9404 16.0604 24.2222 15.9024 24.532C15.7784 24.7813 15.6981 25.05 15.665 25.3264C15.6388 25.5667 15.6454 25.8095 15.6849 26.048C15.7188 26.2587 15.7693 26.4663 15.8361 26.669L15.8454 26.6981L15.856 26.7273L15.8653 26.7577L15.8759 26.7868C16.1079 27.3496 16.3638 27.9043 16.6489 28.4591C16.934 29.0139 17.2469 29.5687 17.593 30.1314C17.9391 30.6941 18.3197 31.2674 18.7373 31.8527C19.155 32.4379 19.6098 33.0443 20.1084 33.6785C21.0127 34.7907 21.9303 35.8425 22.8611 36.8337C23.792 37.825 24.7405 38.7598 25.7067 39.6381C26.672 40.5146 27.6567 41.3368 28.6609 42.1048C29.6651 42.8727 30.6932 43.5882 31.7452 44.2511C31.8778 44.3371 32.0104 44.4179 32.1509 44.496C32.2915 44.5741 32.4161 44.6483 32.5567 44.7198C32.6972 44.7913 32.8219 44.8615 32.9545 44.929L33.3522 45.1289L33.701 45.3037C33.815 45.3606 33.9264 45.4176 34.0351 45.4758C34.1439 45.5341 34.2499 45.5897 34.3534 45.6479C34.4568 45.7062 34.5549 45.7631 34.649 45.8227L34.6888 45.8439L34.7286 45.8677L34.7671 45.8916L34.8068 45.9141C34.9144 45.9678 35.0246 46.0159 35.137 46.0584C35.2427 46.0988 35.3508 46.1328 35.4605 46.1604C35.5662 46.187 35.6734 46.2074 35.7814 46.2213C35.8883 46.2345 35.9959 46.2411 36.1036 46.2411C36.3544 46.2415 36.6038 46.2044 36.8435 46.1312C37.0468 46.0659 37.2418 45.9771 37.4243 45.8664C37.5723 45.7783 37.7125 45.6778 37.8433 45.5659C37.956 45.4705 38.0409 45.3871 38.0966 45.3315L39.2157 44.2127L40.3362 43.0938L41.4566 41.975L42.5771 40.8562C42.6981 40.7355 42.8256 40.6215 42.9589 40.5146C43.1059 40.3975 43.2614 40.2917 43.4244 40.1982C43.5945 40.1015 43.7745 40.0233 43.9614 39.9651C44.1544 39.9062 44.3549 39.8758 44.5567 39.8751C44.7535 39.8756 44.9491 39.9046 45.1375 39.9611C45.3171 40.0155 45.4898 40.0906 45.652 40.1849C45.8077 40.2743 45.9551 40.3776 46.0922 40.4934C46.2169 40.5974 46.3343 40.7098 46.4436 40.8297L48.2655 42.6622L50.0781 44.4722L51.8894 46.2808L53.702 48.0895C54.0093 48.3816 54.266 48.7226 54.4618 49.0984C54.6247 49.414 54.7118 49.763 54.7164 50.1179C54.7137 50.4759 54.6284 50.8284 54.4671 51.148C54.2731 51.5309 54.0198 51.8808 53.7166 52.1848Z" fill="black"/>
<path d="M33.51 14.7486C35.2101 15.032 36.855 15.5806 38.3843 16.3745C39.1487 16.7697 39.8811 17.2239 40.5748 17.733C41.9808 18.7658 43.2219 20.0055 44.2557 21.4099C45.7878 23.4982 46.8107 25.9146 47.2431 28.4671C47.2776 28.6761 47.35 28.8771 47.4566 29.0602C47.6637 29.4144 47.9883 29.6851 48.3742 29.8255C48.5707 29.8962 48.7779 29.9325 48.9868 29.9328H49.0624H49.1366L49.2109 29.9235L49.2878 29.9143C49.5175 29.8773 49.7375 29.7949 49.935 29.6719C50.1324 29.5489 50.3032 29.3877 50.4374 29.1979C50.5698 29.0113 50.6648 28.8009 50.7172 28.5783C50.7722 28.347 50.7807 28.1072 50.7424 27.8726C50.5666 26.8424 50.3113 25.8273 49.9786 24.8365C49.6489 23.8537 49.2432 22.898 48.7653 21.9779C48.2861 21.0544 47.7364 20.1691 47.1211 19.3298C46.498 18.4845 45.8114 17.6877 45.0672 16.9465C44.3255 16.2031 43.5276 15.5178 42.6804 14.8969C40.1515 13.037 37.2216 11.7941 34.1252 11.2676C33.7808 11.2101 33.427 11.2552 33.108 11.3972C32.789 11.5393 32.519 11.772 32.3316 12.0663C32.1442 12.3606 32.0477 12.7034 32.0543 13.0521C32.0608 13.4008 32.17 13.7399 32.3683 14.027C32.5001 14.2178 32.6692 14.3801 32.8654 14.5041C33.0616 14.6281 33.2808 14.7113 33.51 14.7486Z" fill="#0047BA"/>
<path d="M61.9721 27.3496C61.6836 25.6541 61.2642 23.9835 60.7177 22.3526C59.6286 19.1086 58.042 16.053 56.0145 13.2948C53.958 10.498 51.4867 8.0303 48.6858 5.97677C44.5212 2.9259 39.7005 0.888372 34.6079 0.0264834C34.3807 -0.0134378 34.1478 -0.00765031 33.9228 0.0435066C33.6979 0.0946634 33.4854 0.19016 33.2979 0.324395C32.9165 0.595916 32.6574 1.00636 32.5765 1.46705C32.5388 1.7008 32.5474 1.93966 32.6017 2.17012C32.7088 2.61697 32.9848 3.00511 33.3721 3.25319C33.5739 3.38133 33.7993 3.46777 34.0351 3.50741C37.0626 4.01896 39.9919 4.99813 42.7176 6.40973C44.0765 7.11474 45.3793 7.92256 46.6147 8.82612C49.1212 10.657 51.3325 12.8602 53.1716 15.359C54.0769 16.5923 54.886 17.8932 55.5915 19.2504C56.294 20.6042 56.8898 22.0106 57.3736 23.4569C57.8617 24.9135 58.2359 26.4058 58.4928 27.9203C58.5267 28.1294 58.5991 28.3305 58.7062 28.5134C58.8104 28.6901 58.9451 28.847 59.104 28.9769C59.4238 29.2407 59.8255 29.3853 60.2404 29.386H60.3173L60.3915 29.3794L60.4645 29.3714L60.5414 29.3621C60.7734 29.3271 60.9959 29.2451 61.1951 29.1212C61.3867 28.9999 61.5533 28.843 61.6857 28.6591C61.8179 28.4745 61.9125 28.2657 61.9642 28.0447C62.0141 27.816 62.0168 27.5794 61.9721 27.3496Z" fill="#0047BA"/>
</g>
<defs>
<clipPath id="clip0_341_1110">
<rect width="62" height="62" fill="white"/>
</clipPath>
</defs>
</svg>
