<svg width="53" height="68" viewBox="0 0 53 68" fill="none" xmlns="http://www.w3.org/2000/svg">
<path d="M13.9212 19.3027V29.8572L9.5553 27.9826L5.0979 25.5322V20.9795L8.62282 19.1373L13.115 18.6979L13.9212 19.3027Z" fill="#0047BA"/>
<path d="M38.4961 19.3027V29.8572L42.862 27.9826L47.3205 25.5322V20.9795L43.7956 19.1373L39.3023 18.6979L38.4961 19.3027Z" fill="#0047BA"/>
<path d="M49.9256 52.3851C49.6768 50.5315 48.9338 48.7786 47.7744 47.3097C46.6149 45.8408 45.0815 44.7097 43.3345 44.0347L40.2463 42.8413V36.0798H38.145V42.0226L31.7033 39.5328L30.9434 41.4929L32.7968 42.2099V48.4949L26.4837 44.9841L20.1335 48.5042V42.2087L21.9939 41.4918L21.2363 39.5259L14.8734 41.9775V29.8699H14.8884V17.989C14.9658 14.9653 16.2227 12.0913 18.3914 9.97914C20.5601 7.86696 23.4692 6.68355 26.499 6.68099C29.5288 6.67842 32.4399 7.85691 34.6122 9.96542C36.7844 12.0739 38.0462 14.9458 38.1288 17.9694V29.8699H41.9746C42.1518 29.8699 42.3221 29.8583 42.497 29.8433V30.869C42.4967 31.1477 42.3856 31.4149 42.1882 31.612C41.9908 31.8091 41.7232 31.9199 41.444 31.9202H27.5355V34.0214H41.444C42.2814 34.0208 43.0844 33.6885 43.6766 33.0975C44.2688 32.5065 44.602 31.705 44.6029 30.869V29.2755C45.6854 28.7679 46.5965 27.9568 47.2253 26.9412C47.8541 25.9256 48.1734 24.7494 48.1441 23.5558C48.1149 22.3622 47.7385 21.2029 47.0607 20.2192C46.383 19.2355 45.4332 18.4698 44.3272 18.0156C44.2403 8.25904 36.2707 0.346924 26.4779 0.346924C16.7291 0.346924 8.79193 8.1885 8.63439 17.8838C7.25136 18.3546 6.08068 19.3003 5.33091 20.5524C4.58113 21.8045 4.30096 23.2816 4.54031 24.7207C4.77965 26.1598 5.52297 27.4672 6.63784 28.4103C7.7527 29.3533 9.16671 29.8705 10.6279 29.8699H12.7686V42.7927L9.62364 44.0046C7.87456 44.6748 6.33849 45.8028 5.1767 47.27C4.01492 48.7373 3.27027 50.4898 3.02094 52.3435L0.411133 67.6496H52.5898L49.9256 52.3851ZM46.0416 23.7063C46.0404 24.7826 45.6114 25.8145 44.849 26.5755C44.0865 27.3364 43.0527 27.7643 41.9746 27.7653H40.2509V19.6473H41.9746C43.0526 19.6485 44.0862 20.0765 44.8486 20.8374C45.611 21.5983 46.0401 22.63 46.0416 23.7063ZM26.4779 2.44927C34.956 2.44927 41.8715 9.17491 42.1993 17.5588C42.124 17.5588 42.051 17.5473 41.9746 17.5473H40.2127C39.8235 10.3302 33.8347 4.57242 26.5092 4.57242C19.1837 4.57242 13.196 10.3302 12.8057 17.5473H10.7577C11.0901 9.16797 18.0044 2.44927 26.4779 2.44927ZM10.6279 27.7676C9.54961 27.7676 8.51544 27.3399 7.75294 26.5787C6.99044 25.8175 6.56207 24.7851 6.56207 23.7086C6.56207 22.6321 6.99044 21.5997 7.75294 20.8385C8.51544 20.0773 9.54961 19.6496 10.6279 19.6496H12.7686V27.7676H10.6279ZM41.2274 61.2374V65.5507H11.7492V61.2374H9.64449V65.5507H2.90626L5.10716 52.658C5.30239 51.1721 5.89543 49.7662 6.82381 48.5884C7.75218 47.4107 8.98153 46.5047 10.3824 45.9659L18.0276 43.0205V52.0705L26.4837 47.3848L34.9074 52.074V43.024L42.5815 45.989C43.982 46.5321 45.2104 47.4413 46.1377 48.6214C47.0651 49.8015 47.6572 51.2089 47.8521 52.6962L50.0866 65.5484H43.3322V61.235L41.2274 61.2374Z" fill="black"/>
<path d="M53 67.9965H0L2.68046 52.2925C2.93649 50.3778 3.70489 48.5674 4.90477 47.0518C6.10465 45.5363 7.69162 44.3718 9.49862 43.6808L12.4212 42.5556V30.2168H10.628C9.10557 30.2173 7.631 29.6855 6.46031 28.7138C5.28962 27.7422 4.49673 26.3919 4.21927 24.8975C3.94182 23.403 4.19732 21.8588 4.94142 20.5328C5.68553 19.2068 6.87125 18.1829 8.29276 17.6386C8.4616 12.9236 10.4615 8.4591 13.8692 5.18999C17.2768 1.92088 21.8249 0.10366 26.551 0.122893C31.277 0.142125 35.8101 1.9963 39.191 5.29304C42.5719 8.58977 44.5352 13.0704 44.6655 17.7866C45.7807 18.2911 46.7307 19.0993 47.4066 20.1185C48.0824 21.1376 48.4567 22.3263 48.4865 23.5482C48.5162 24.77 48.2002 25.9755 47.5748 27.0262C46.9493 28.0769 46.0398 28.9303 44.9505 29.4883V30.8667C44.9493 31.7946 44.5794 32.6841 43.9221 33.3401C43.2647 33.9961 42.3736 34.3651 41.4441 34.366H27.1881V31.5698H41.4441C41.6312 31.5698 41.8106 31.4956 41.9429 31.3635C42.0752 31.2315 42.1496 31.0523 42.1496 30.8655V30.2099C42.0928 30.2099 42.0337 30.2099 41.9746 30.2099H37.7814V17.9693C37.6145 11.9364 32.5583 7.02167 26.5093 7.02167C20.4603 7.02167 15.3889 11.9456 15.236 17.9982V30.2168H15.221V41.4767L21.4356 39.0864L22.4434 41.6941L20.4811 42.4504V47.9098L26.4849 44.5816L32.4517 47.904V42.4481L30.4941 41.6906L31.5076 39.0864L37.7999 41.5149V35.7329H40.6008V42.5973L43.4678 43.7051C45.2711 44.4027 46.8538 45.5706 48.0508 47.087C49.2479 48.6034 50.0154 50.4127 50.2732 52.3261L53 67.9965ZM0.8236 67.3027H52.1729L49.5863 52.4244C49.3457 50.6327 48.6276 48.9384 47.5068 47.5185C46.3861 46.0986 44.904 45.0052 43.2153 44.3527L39.9046 43.0737V36.4267H38.4926V42.5279L31.9015 39.9838L31.3918 41.2952L33.1467 41.9774V49.0905L26.4838 45.3807L19.7861 49.0928V41.9774L21.5457 41.2952L21.0371 39.9803L14.5259 42.4886V29.523H14.541V17.989C14.6182 14.874 15.9109 11.9123 18.1437 9.73505C20.3765 7.55778 23.3728 6.33711 26.494 6.33319C29.6152 6.32927 32.6146 7.5424 34.8528 9.71406C37.0911 11.8857 38.3913 14.8442 38.4764 17.9589V29.523H41.9746C42.1484 29.523 42.3222 29.5102 42.4681 29.4975L42.8446 29.4663V30.869C42.8431 31.239 42.6949 31.5934 42.4325 31.8547C42.1701 32.116 41.8148 32.263 41.4441 32.2636H27.8831V33.6745H41.4441C42.1893 33.6738 42.9039 33.3781 43.431 32.8522C43.958 32.3262 44.2546 31.613 44.2555 30.869V29.0558L44.4547 28.9621C45.4765 28.4833 46.3367 27.718 46.9303 26.7596C47.524 25.8012 47.8254 24.691 47.7979 23.5645C47.7704 22.438 47.4151 21.3438 46.7754 20.4154C46.1357 19.487 45.2392 18.7644 44.1952 18.3359L43.9821 18.248V18.0168C43.8952 8.46601 36.0438 0.693825 26.478 0.693825C16.9794 0.693825 9.13605 8.40819 8.98662 17.8895V18.1335L8.75495 18.2122C7.45055 18.6563 6.34631 19.5481 5.63876 20.7287C4.9312 21.9094 4.66625 23.3024 4.89104 24.6598C5.11583 26.0173 5.81578 27.251 6.86633 28.1415C7.91687 29.0321 9.24985 29.5216 10.628 29.523H13.1162V43.0309L9.74883 44.3272C8.05838 44.9744 6.57376 46.0642 5.45104 47.4821C4.32831 48.9 3.60894 50.5937 3.36854 52.3851V52.3989L0.8236 67.3027ZM50.4968 65.8942H42.9847V61.5808H41.575V65.8942H11.4018V61.5808H9.99209V65.8942H2.49397L4.76205 52.6059C4.96652 51.0594 5.58467 49.5965 6.5515 48.371C7.51833 47.1456 8.7981 46.2029 10.2562 45.6421L18.3764 42.5198V51.4854L26.4849 46.9916L34.5599 51.4877V42.5175L42.7079 45.6664C44.1631 46.234 45.4392 47.1809 46.4031 48.4084C47.367 49.6359 47.9834 51.099 48.1881 52.6453L50.4968 65.8942ZM43.6798 65.2003H49.6708L47.5059 52.7447C47.3177 51.3193 46.7497 49.9705 45.8611 48.8391C44.9725 47.7077 43.7959 46.8353 42.4542 46.3128L35.2526 43.5305V52.6661L26.4815 47.7826L17.6779 52.6614V43.5259L10.5064 46.2897C9.16391 46.8062 7.98573 47.6744 7.09591 48.8031C6.20609 49.9317 5.63755 51.279 5.45012 52.7031V52.7158L3.31873 65.2049H9.29707V60.8916H12.0968V65.2049H40.88V60.8916H43.6798V65.2003ZM41.9746 28.1145H39.9035V19.3027H41.9746C42.5542 19.3027 43.1281 19.4166 43.6636 19.6381C44.199 19.8595 44.6856 20.184 45.0954 20.5931C45.5052 21.0023 45.8303 21.488 46.0521 22.0225C46.2739 22.5571 46.388 23.13 46.388 23.7086C46.388 24.2872 46.2739 24.8601 46.0521 25.3946C45.8303 25.9292 45.5052 26.4149 45.0954 26.824C44.6856 27.2331 44.199 27.5577 43.6636 27.7791C43.1281 28.0005 42.5542 28.1145 41.9746 28.1145ZM40.5985 27.4206H41.9746C42.4629 27.4206 42.9465 27.3246 43.3976 27.1381C43.8487 26.9515 44.2586 26.6781 44.6039 26.3334C44.9492 25.9887 45.2231 25.5795 45.41 25.1291C45.5968 24.6787 45.693 24.196 45.693 23.7086C45.693 23.2211 45.5968 22.7384 45.41 22.288C45.2231 21.8377 44.9492 21.4284 44.6039 21.0837C44.2586 20.7391 43.8487 20.4656 43.3976 20.2791C42.9465 20.0925 42.4629 19.9965 41.9746 19.9965H40.5985V27.4206ZM13.1162 28.1145H10.628C10.0485 28.1145 9.47456 28.0005 8.9391 27.7791C8.40365 27.5577 7.91712 27.2331 7.5073 26.824C7.09748 26.4149 6.77239 25.9292 6.5506 25.3946C6.3288 24.8601 6.21465 24.2872 6.21465 23.7086C6.21465 23.13 6.3288 22.5571 6.5506 22.0225C6.77239 21.488 7.09748 21.0023 7.5073 20.5931C7.91712 20.184 8.40365 19.8595 8.9391 19.6381C9.47456 19.4166 10.0485 19.3027 10.628 19.3027H13.1162V28.1145ZM10.628 19.9965C10.1397 19.9965 9.65621 20.0925 9.20508 20.2791C8.75394 20.4656 8.34403 20.7391 7.99875 21.0837C7.65347 21.4284 7.37958 21.8377 7.19271 22.288C7.00585 22.7384 6.90967 23.2211 6.90967 23.7086C6.90967 24.196 7.00585 24.6787 7.19271 25.1291C7.37958 25.5795 7.65347 25.9887 7.99875 26.3334C8.34403 26.6781 8.75394 26.9515 9.20508 27.1381C9.65621 27.3246 10.1397 27.4206 10.628 27.4206H12.4212V19.9965H10.628ZM42.5608 17.915L42.1878 17.9023L42.0824 17.8965C42.0465 17.8965 42.0106 17.8965 41.9746 17.8965H39.8838L39.8664 17.5681C39.6835 14.155 38.1965 10.942 35.7117 8.59065C33.2269 6.2393 29.9336 4.92866 26.5098 4.92866C23.0861 4.92866 19.7928 6.2393 17.308 8.59065C14.8232 10.942 13.3362 14.155 13.1533 17.5681L13.1347 17.8965H10.3952L10.4103 17.5357C10.5734 13.3894 12.3384 9.46721 15.3352 6.59177C18.3319 3.71633 22.3276 2.11101 26.4841 2.1125C30.6407 2.114 34.6352 3.72219 37.6299 6.59979C40.6245 9.47739 42.3867 13.4008 42.5469 17.5473L42.5608 17.915ZM40.5429 17.2003H41.838C41.5932 13.3007 39.8689 9.6408 37.0161 6.96574C34.1633 4.29067 30.3965 2.80155 26.4826 2.80155C22.5687 2.80155 18.8019 4.29067 15.9491 6.96574C13.0964 9.6408 11.3721 13.3007 11.1273 17.2003H12.4849C12.754 13.6698 14.3487 10.371 16.95 7.96422C19.5513 5.55741 22.9672 4.22017 26.5139 4.22017C30.0606 4.22017 33.4765 5.55741 36.0778 7.96422C38.6791 10.371 40.2738 13.6698 40.5429 17.2003Z" fill="black"/>
<path d="M22.2939 14.6493V15.9583C22.2939 17.8826 20.7417 19.2795 18.6022 19.2795H15.4468V20.71C15.4468 25.22 16.4893 29.4848 18.3022 32.4093C19.6018 34.5047 21.3139 36.1734 22.5267 37.2038C23.2955 37.857 24.2696 38.22 25.279 38.2295H27.5216C28.5322 38.2378 29.5131 37.8883 30.2901 37.2431C30.5357 37.0361 30.8137 36.7933 31.1126 36.5157L29.682 34.9742C29.4086 35.2263 29.1549 35.4495 28.9302 35.638C28.5213 35.9688 28.0072 36.1423 27.4811 36.1272H25.2906C24.778 36.1213 24.2838 35.9364 23.8936 35.6045C22.997 34.8401 21.3104 33.2639 20.093 31.3015C18.5871 28.8788 17.6604 25.2107 17.5608 21.3807H18.6033C20.6096 21.3807 22.3101 20.5215 23.3526 19.1546C24.3836 20.5215 26.0899 21.3807 28.0962 21.3807H35.3707C35.2966 24.3538 34.7243 27.2159 33.7432 29.5033L35.6777 30.3278C36.8418 27.6126 37.4836 24.1989 37.4836 20.7054V19.2749H28.0904C25.952 19.2749 24.3987 17.878 24.3987 15.9537V14.6493H22.2939Z" fill="black"/>
<path d="M27.5217 38.573H25.2791C24.1873 38.5642 23.1333 38.1729 22.3009 37.4675C21.0731 36.4267 19.3309 34.7257 18.0069 32.5921C16.1593 29.6144 15.0994 25.2836 15.0994 20.7101V18.928H18.6023C20.5402 18.928 21.9465 17.6768 21.9465 15.9538V14.3024H24.7463V15.9584C24.7463 17.6814 26.1525 18.9327 28.0905 18.9327H37.8266V20.7101C37.8266 24.2452 37.1756 27.7109 35.9917 30.469L35.855 30.7881L33.2811 29.6872L33.4178 29.3681C34.3375 27.2252 34.897 24.525 35.0071 21.7289H28.0905C26.1942 21.7289 24.4891 20.9957 23.3469 19.704C22.2036 20.9957 20.4997 21.7289 18.5976 21.7289H17.92C18.0636 25.3576 18.9776 28.8465 20.3885 31.12C21.5804 33.0431 23.2381 34.5892 24.1196 35.342C24.4484 35.6206 24.8641 35.776 25.2953 35.7815H27.4812C27.9252 35.7957 28.3598 35.6514 28.7067 35.3744C28.9546 35.1639 29.2037 34.9442 29.4458 34.721L29.7006 34.4898L31.6038 36.5401L31.349 36.7714C31.0767 37.0234 30.7964 37.2709 30.5149 37.5091C29.674 38.2049 28.6139 38.5817 27.5217 38.573ZM27.4684 37.8792H27.5217C28.4515 37.8875 29.3542 37.5672 30.0701 36.9749C30.2566 36.8176 30.442 36.6557 30.625 36.4915L29.6659 35.4588C29.499 35.6092 29.3288 35.756 29.1596 35.8994C28.6879 36.2833 28.0942 36.4859 27.4858 36.4707H25.2907C24.6958 36.4639 24.1221 36.2495 23.669 35.8647C22.7573 35.0876 21.0406 33.4837 19.7989 31.4808C18.2571 28.9969 17.3153 25.3172 17.2145 21.3866L17.2064 21.0304H18.6034C20.4406 21.0304 22.0693 20.2695 23.0701 18.9419L23.3481 18.5742L23.625 18.9419C24.6269 20.2695 26.2545 21.0304 28.0916 21.0304H35.723L35.7137 21.3866C35.6419 24.2568 35.1021 27.0529 34.1916 29.316L35.4878 29.8711C36.55 27.2518 37.1327 24.0127 37.1327 20.7054V19.6219H28.0905C25.7506 19.6219 24.0512 18.0792 24.0512 15.9538V14.9963H22.6415V15.9584C22.6415 18.0839 20.9422 19.6265 18.6023 19.6265H15.7944V20.7101C15.7944 25.1576 16.8161 29.3553 18.5988 32.2278C19.873 34.2839 21.5619 35.9283 22.7515 36.9402C23.4588 37.5402 24.3544 37.8737 25.2826 37.8827L27.4684 37.8792Z" fill="black"/>
</svg>
