<svg width="46" height="62" viewBox="0 0 46 62" fill="none" xmlns="http://www.w3.org/2000/svg">
<path d="M41.3251 26.7167C40.6018 26.7154 39.8879 26.8847 39.2393 27.2114C38.5907 27.5381 38.0248 28.0134 37.5859 28.6001C37.1471 28.013 36.5814 27.5371 35.9328 27.2095C35.2843 26.882 34.5704 26.7115 33.8467 26.7115C33.1231 26.7115 32.4092 26.882 31.7606 27.2095C31.1121 27.5371 30.5464 28.013 30.1075 28.6001C29.9315 28.3643 29.7342 28.1458 29.5181 27.9477C28.7091 27.2077 27.6746 26.7752 26.5893 26.723C25.504 26.6709 24.4343 27.0024 23.5607 27.6615V12.3318C23.5607 9.73969 21.4635 7.63074 18.8867 7.63074C16.3099 7.63074 14.2127 9.73969 14.2127 12.3318V37.7813L11.5317 35.0953L7.91776 31.4769C7.04164 30.6043 5.86585 30.1158 4.64153 30.1158C3.41722 30.1158 2.24143 30.6043 1.3653 31.4769C0.934556 31.9064 0.592114 32.4194 0.358017 32.9856C0.12392 33.5518 0.00287236 34.1601 0.00195834 34.7746C0.00104432 35.3892 0.120283 35.9978 0.352694 36.5647C0.585105 37.1317 0.92602 37.6457 1.35548 38.0766C2.1122 38.8921 16.4202 54.4884 17.104 55.4308C18.5639 57.4352 20.4561 59.07 22.6343 60.2086C25.6453 61.7667 29.0574 62.3284 32.3959 61.8155C35.7343 61.3026 38.8331 59.7407 41.2611 57.3471C42.728 55.9058 43.9046 54.1857 44.7245 52.2836C45.5699 50.3249 46.0051 48.2076 46.0024 46.0674V31.4178C46 28.8257 43.9028 26.7167 41.3251 26.7167ZM44.1295 46.0664C44.1295 53.8002 37.7729 60.0923 29.9552 60.0923C25.4807 60.0923 21.2372 57.9251 18.6034 54.2957C17.7715 53.1483 2.79414 36.8475 2.67542 36.7278C2.42046 36.4749 2.21779 36.1725 2.07939 35.8383C1.941 35.5041 1.86969 35.145 1.86969 34.7822C1.86969 34.4194 1.941 34.0603 2.07939 33.7261C2.21779 33.3919 2.42046 33.0895 2.67542 32.8366C3.20189 32.3147 3.90702 32.0227 4.64107 32.0227C5.37511 32.0227 6.08024 32.3147 6.60671 32.8366L10.2206 36.4579L16.0809 42.3283V12.3299C16.0809 10.7894 17.3391 9.53652 18.8853 9.53652C20.4314 9.53652 21.6897 10.7894 21.6897 12.3299V31.1907H23.5691C23.6859 29.7562 24.8942 28.6244 26.3641 28.6244C27.8234 28.6244 29.0236 29.7147 29.1559 31.1602L29.1587 31.1907H31.0498L31.0526 31.1612C31.1849 29.7147 32.3847 28.6244 33.8439 28.6244C35.3139 28.6244 36.5226 29.7562 36.639 31.1907H38.5287C38.6455 29.7562 39.8537 28.6244 41.3237 28.6244C42.8703 28.6244 44.1281 29.8773 44.1281 31.4178L44.1295 46.0664Z" fill="black"/>
<path d="M24.8895 12.6461V16.9908C26.1441 15.5197 26.8343 13.6348 26.8325 11.6846C26.8325 7.21392 23.2681 3.5769 18.8867 3.5769C14.5053 3.5769 10.9409 7.21392 10.9409 11.6846C10.9394 13.6558 11.6448 15.5595 12.9241 17.0366V12.8793C12.8485 12.4857 12.8104 12.0856 12.8105 11.6846C12.8105 8.26601 15.5364 5.4846 18.8867 5.4846C19.7643 5.48458 20.6316 5.67855 21.4287 6.05318C22.2258 6.4278 22.934 6.97418 23.5044 7.65473C24.0749 8.33528 24.4941 9.13384 24.7332 9.99548C24.9723 10.8571 25.0256 11.7614 24.8895 12.6461Z" fill="#2B50A3"/>
<path d="M26.9839 3.42238C25.922 2.33084 24.6593 1.46397 23.2683 0.871485C21.8773 0.279001 20.3853 -0.0274379 18.878 -0.0302539C17.3707 -0.0330698 15.8776 0.267793 14.4845 0.855076C13.0914 1.44236 11.8256 2.30451 10.7598 3.39207C9.69392 4.47963 8.84899 5.77121 8.27343 7.19272C7.69788 8.61422 7.40302 10.1377 7.40578 11.6757C7.40854 13.2138 7.70886 14.7361 8.28951 16.1555C8.87017 17.5748 9.71973 18.8632 10.7895 19.9468C11.4322 20.603 12.1487 21.1793 12.9241 21.6637V19.3316C11.7954 18.4173 10.8837 17.2547 10.2571 15.9306C9.63039 14.6065 9.30494 13.155 9.30501 11.6846C9.30501 6.29536 13.6051 1.90767 18.8867 1.90767C24.1683 1.90767 28.4684 6.29536 28.4684 11.6846C28.4684 13.1461 28.1469 14.5889 27.5275 15.9067C26.908 17.2244 26.0065 18.3834 24.8895 19.2982V21.6394C25.6497 21.1601 26.3526 20.5921 26.9839 19.9468C29.1314 17.7555 30.3379 14.7835 30.3379 11.6846C30.3379 8.58567 29.1314 5.61367 26.9839 3.42238Z" fill="#2B50A3"/>
</svg>
