<svg width="75" height="55" viewBox="0 0 75 55" fill="none" xmlns="http://www.w3.org/2000/svg">
<path d="M53.2322 55H2.02178C1.48557 55 0.971324 54.7892 0.592166 54.414C0.213008 54.0387 0 53.5298 0 52.9991L0 2.00087C0 1.47021 0.213008 0.961279 0.592166 0.586042C0.971324 0.210806 1.48557 0 2.02178 0L53.2322 0C53.7684 0 54.2826 0.210806 54.6618 0.586042C55.0409 0.961279 55.2539 1.47021 55.2539 2.00087V9.13332C55.2539 9.66398 55.0409 10.1729 54.6618 10.5481C54.2826 10.9234 53.7684 11.1342 53.2322 11.1342C52.6959 11.1342 52.1817 10.9234 51.8025 10.5481C51.4234 10.1729 51.2104 9.66398 51.2104 9.13332V4.00175H4.04356V50.9983H51.2104V43.4056C51.2104 42.8749 51.4234 42.366 51.8025 41.9908C52.1817 41.6155 52.6959 41.4047 53.2322 41.4047C53.7684 41.4047 54.2826 41.6155 54.6618 41.9908C55.0409 42.366 55.2539 42.8749 55.2539 43.4056V52.9991C55.2539 53.5298 55.0409 54.0387 54.6618 54.414C54.2826 54.7892 53.7684 55 53.2322 55Z" fill="black"/>
<path d="M61.7628 39.2171C61.3628 39.2173 60.9717 39.1 60.6391 38.8802C60.3064 38.6604 60.0472 38.3478 59.8941 37.9821C59.741 37.6163 59.7009 37.2139 59.779 36.8256C59.8571 36.4374 60.0498 36.0808 60.3327 35.801L70.1195 26.1154L60.1548 16.2484C59.9617 16.0639 59.8077 15.8431 59.7017 15.599C59.5958 15.3548 59.54 15.0923 59.5377 14.8266C59.5353 14.5609 59.5865 14.2975 59.6882 14.0516C59.7898 13.8057 59.9399 13.5823 60.1298 13.3944C60.3196 13.2065 60.5453 13.058 60.7938 12.9573C61.0423 12.8567 61.3085 12.8061 61.5769 12.8084C61.8454 12.8107 62.1107 12.8659 62.3574 12.9708C62.604 13.0757 62.8271 13.2281 63.0136 13.4192L74.4084 24.6948C74.5963 24.8806 74.7453 25.1012 74.847 25.3441C74.9487 25.5869 75.001 25.8472 75.001 26.1101C75.001 26.3729 74.9487 26.6332 74.847 26.8761C74.7453 27.1189 74.5963 27.3395 74.4084 27.5253L63.1929 38.6249C63.0056 38.8118 62.7829 38.9604 62.5375 39.062C62.2921 39.1637 62.0288 39.2164 61.7628 39.2171Z" fill="#0047BA"/>
<path d="M31.5601 36.3518C31.0239 36.3518 30.5097 36.141 30.1305 35.7658C29.7513 35.3906 29.5383 34.8816 29.5383 34.351C29.5383 31.0375 30.6368 28.403 32.8028 26.5196C36.7844 23.0594 43.0088 23.5596 44.0412 23.6703L71.8407 23.8491C72.1062 23.8499 72.369 23.9026 72.6139 24.0039C72.8589 24.1053 73.0813 24.2534 73.2684 24.4398C73.4555 24.6262 73.6037 24.8473 73.7045 25.0904C73.8052 25.3335 73.8567 25.5938 73.8558 25.8566C73.8549 26.1194 73.8017 26.3794 73.6993 26.6218C73.5969 26.8642 73.4472 27.0843 73.2588 27.2695C73.0705 27.4547 72.8471 27.6013 72.6015 27.7011C72.3558 27.8008 72.0928 27.8517 71.8273 27.8508H71.8138L43.8997 27.6707C43.8168 27.6707 43.7339 27.6654 43.6517 27.6547C43.6032 27.6547 38.329 27.0264 35.4554 29.5355C34.1911 30.64 33.5765 32.2154 33.5765 34.351C33.5765 34.8807 33.3642 35.3888 32.9862 35.7639C32.6083 36.139 32.0954 36.3504 31.5601 36.3518Z" fill="#0047BA"/>
</svg>
