<svg width="65" height="62" viewBox="0 0 65 62" fill="none" xmlns="http://www.w3.org/2000/svg">
<path d="M50.1922 26.8224V5.90496C50.1922 2.65999 47.5322 0 44.2851 0H5.90496C2.65999 0 0 2.65999 0 5.90496V44.2851C0 47.5301 2.65999 50.1901 5.90496 50.1901H30.5401C32.9775 57.0615 39.5416 62 47.2376 62C57.0043 62 64.9525 54.0518 64.9525 44.2851C64.9525 35.5273 58.5558 28.234 50.1922 26.8224ZM29.7749 47.2376H5.90496C4.24327 47.2376 2.95248 45.9468 2.95248 44.2851V10.3347H17.7149V23.6199C17.7149 24.2154 18.0752 24.7538 18.6263 24.9827C19.1774 25.2116 19.8132 25.0844 20.235 24.6627L25.095 19.8026L29.9572 24.6627C30.379 25.0844 31.0148 25.2116 31.5659 24.9827C32.117 24.7538 32.4773 24.2154 32.4773 23.6199V10.3347H47.2397V26.5723C37.473 26.5723 29.5248 34.5205 29.5248 44.2872C29.5248 45.2919 29.6138 46.2775 29.7749 47.2376ZM47.2376 59.0496C39.0669 59.0496 32.4752 52.4579 32.4752 44.2872C32.4752 36.1165 39.0669 29.5248 47.2376 29.5248C55.4083 29.5248 62 36.1165 62 44.2872C62 52.4558 55.4104 59.0496 47.2376 59.0496Z" fill="black"/>
<path d="M32.4773 2.95245H44.2872C45.9489 2.95245 47.2397 4.24324 47.2397 5.90494V7.38224H32.4773V2.95245Z" fill="#E4E5E7"/>
<path d="M29.5249 2.95245V20.0548L26.1401 16.6699C25.5636 16.0934 24.6288 16.0934 24.0523 16.6699L20.6675 20.0569V2.95245H29.5249Z" fill="#0047BA"/>
<path d="M2.95239 5.90494C2.95239 4.24324 4.24318 2.95245 5.90487 2.95245H17.7148V7.38012H2.95239V5.90494Z" fill="#E4E5E7"/>
<path d="M43.0983 35.8622L39.0754 39.8893C38.4989 40.4658 38.4989 41.4005 39.0754 41.977L43.0983 46.0041C43.6748 46.5806 44.6095 46.5806 45.186 46.0041C45.7625 45.4275 45.7646 44.495 45.1881 43.9163L43.802 42.5302H50.8515C52.9646 42.5302 54.62 44.1876 54.62 46.305C54.62 48.4224 52.9646 50.0799 50.8515 50.0799H41.3348C40.5188 50.0799 39.8575 50.7412 39.8575 51.5572C39.8575 52.3732 40.5188 53.0345 41.3348 53.0345H50.8515C54.55 53.0345 57.5724 50.0078 57.5724 46.3071C57.5724 42.6065 54.55 39.5798 50.8515 39.5798H43.5603L45.1902 37.9499C45.7646 37.3734 45.7646 36.4387 45.1881 35.8622C44.5268 35.2327 43.6642 35.309 43.0983 35.8622Z" fill="#0047BA"/>
</svg>
