<svg width="76" height="74" viewBox="0 0 76 74" fill="none" xmlns="http://www.w3.org/2000/svg">
<path d="M72.3839 55.145H74.4319C74.5532 55.145 74.6727 55.1157 74.7803 55.0596C74.8879 55.0036 74.9804 54.9224 75.0499 54.8229C75.1193 54.7235 75.1637 54.6087 75.1794 54.4885C75.195 54.3682 75.1815 54.2459 75.1399 54.132C75.1039 54.032 71.462 44.422 61.007 43.558L57.8069 35.548C57.6009 34.833 57.7069 34.573 57.7579 34.494C57.8579 34.346 58.1499 34.294 58.3319 34.278H59.9469C60.1469 34.278 60.3387 34.1985 60.4801 34.0571C60.6215 33.9157 60.7009 33.724 60.7009 33.524V24.861C60.7009 24.661 60.6215 24.4692 60.4801 24.3278C60.3387 24.1864 60.1469 24.107 59.9469 24.107H57.6659C56.3636 24.1107 55.112 24.6124 54.1678 25.5094C53.2237 26.4064 52.6584 27.6306 52.5879 28.931H50.5879C50.4335 28.3822 50.1141 27.8942 49.673 27.533C49.2319 27.1719 48.6904 26.9551 48.1219 26.912L38.9219 26.235L33.8719 18.589L35.4979 18.929C35.5486 18.9397 35.6001 18.945 35.6519 18.9449C35.8384 18.945 36.0183 18.8759 36.1569 18.751C37.8619 17.212 38.0969 13.438 38.0969 9.58899C38.0943 7.21373 37.1495 4.93646 35.47 3.2569C33.7904 1.57733 31.5132 0.632591 29.1379 0.629944C26.7627 0.632591 24.4855 1.57733 22.8059 3.2569C21.1263 4.93646 20.1816 7.21373 20.179 9.58899C20.1819 11.862 21.047 14.0491 22.5999 15.709C21.8619 16.663 20.6229 18.857 19.9779 23.332C19.6283 22.9762 19.2113 22.6937 18.7513 22.5009C18.2914 22.3081 17.7977 22.2089 17.299 22.209H4.39893C3.4 22.2103 2.44231 22.6077 1.73596 23.314C1.02961 24.0204 0.632182 24.9781 0.630859 25.977V38.877C0.632182 39.8759 1.02961 40.8335 1.73596 41.5399C2.44231 42.2462 3.4 42.6436 4.39893 42.645H9.00488C8.06165 43.1791 7.19647 43.8407 6.43384 44.611C0.556838 50.517 0.623911 61.783 0.633911 62.259C0.63602 62.4575 0.716463 62.6471 0.857666 62.7866C0.998869 62.9261 1.18944 63.0042 1.38794 63.004H5.87085C6.06366 65.5785 7.22155 67.9852 9.11279 69.7426C11.004 71.4999 13.4892 72.4784 16.0709 72.482C18.6526 72.4784 21.1377 71.4999 23.0289 69.7426C24.9202 67.9852 26.0781 65.5785 26.2709 63.004H26.7059L31.3599 67.404C31.4998 67.5364 31.6853 67.6101 31.8779 67.61H47.127C48.6029 67.5766 50.0571 67.2476 51.4037 66.6425C52.7503 66.0373 53.9619 65.1684 54.9669 64.087C55.3984 66.4425 56.6412 68.5725 58.4797 70.1071C60.3182 71.6416 62.6361 72.4836 65.0309 72.4869C67.7433 72.4838 70.3438 71.4049 72.2618 69.4869C74.1798 67.5689 75.2587 64.9684 75.2619 62.256C75.2644 59.6015 74.232 57.0505 72.3839 55.145ZM37.8658 27.377C37.9295 27.4731 38.0144 27.5533 38.1139 27.6116C38.2134 27.6698 38.325 27.7045 38.4399 27.713L48.007 28.413C48.3425 28.4383 48.6542 28.5955 48.874 28.8502C49.0939 29.1049 49.2039 29.4364 49.1799 29.772C49.1563 30.0752 49.0251 30.36 48.8101 30.5751C48.595 30.7901 48.3102 30.9213 48.007 30.9449L37.2878 31.7339C37.08 31.7501 36.8711 31.7246 36.6732 31.6588C36.4754 31.593 36.2927 31.4883 36.1359 31.351L27.7839 24.0309C27.7095 23.9656 27.623 23.9155 27.5292 23.8836C27.4354 23.8517 27.3363 23.8387 27.2374 23.8452C27.1386 23.8517 27.0419 23.8776 26.9531 23.9215C26.8643 23.9654 26.785 24.0264 26.7198 24.101C26.5884 24.2513 26.5219 24.4477 26.535 24.647C26.5482 24.8463 26.6398 25.0322 26.7899 25.1639L35.1439 32.486C35.7032 32.9766 36.4219 33.2468 37.1659 33.246C37.2429 33.246 37.32 33.2459 37.3979 33.2369L48.1169 32.4479C48.1549 32.4479 48.1919 32.439 48.2299 32.434L53.5779 47.701C53.2989 49.155 51.262 58.693 45.778 58.693H39.5779C36.8489 58.713 35.1388 57.9999 35.0948 54.3799V49.551C35.0935 47.3198 34.2073 45.1803 32.6305 43.6017C31.0537 42.0232 28.915 41.1347 26.6838 41.131H20.3059C20.7993 40.4805 21.0666 39.6865 21.0669 38.87V29.809C21.0669 20.614 23.1969 17.331 23.8909 16.509L31.7749 18.157L37.8658 27.377ZM29.1368 2.13794C30.8111 2.14027 32.4359 2.70554 33.7501 3.7428C35.0643 4.78006 35.9917 6.22911 36.3829 7.85699L27.3829 6.65698C27.1848 6.63055 26.9843 6.68386 26.8254 6.80518C26.6666 6.9265 26.5625 7.10588 26.5359 7.30396C26.5095 7.50206 26.5628 7.70257 26.6841 7.86139C26.8054 8.02021 26.9848 8.12433 27.1829 8.15094L36.5829 9.40497C36.5829 9.46697 36.5829 9.52897 36.5829 9.58997C36.5829 11.325 36.5829 15.7649 35.3829 17.3669L23.9979 14.988C23.2668 14.2913 22.6845 13.4535 22.2864 12.5253C21.8883 11.5972 21.6827 10.5979 21.6819 9.58795C21.6845 7.61204 22.471 5.71788 23.8687 4.32117C25.2663 2.92445 27.1609 2.13926 29.1368 2.13794ZM4.40088 41.1379C3.80139 41.1374 3.22664 40.8991 2.80273 40.4752C2.37883 40.0513 2.14042 39.4764 2.13989 38.877V25.977C2.14042 25.3775 2.37883 24.8027 2.80273 24.3788C3.22664 23.9549 3.80139 23.7165 4.40088 23.7159H17.3009C17.9003 23.7167 18.475 23.9552 18.8988 24.3791C19.3227 24.8029 19.5611 25.3776 19.5619 25.977V38.877C19.5611 39.4764 19.3227 40.051 18.8988 40.4749C18.475 40.8987 17.9003 41.1371 17.3009 41.1379H4.40088ZM16.0709 70.975C13.8888 70.9721 11.7867 70.1525 10.1786 68.6774C8.57047 67.2024 7.57284 65.1787 7.38196 63.0049H24.7609C24.5693 65.1785 23.5712 67.2016 21.963 68.6762C20.3548 70.1508 18.2529 70.9701 16.0709 70.973V70.975ZM47.127 66.101H32.1779L27.5239 61.701C27.3843 61.5686 27.1993 61.4949 27.007 61.495H2.15491C2.24691 58.918 2.90093 50.295 7.50793 45.67C8.50342 44.6667 9.69544 43.88 11.0093 43.3591C12.3231 42.8382 13.7304 42.5944 15.1429 42.6429H26.6829C28.5138 42.6472 30.2684 43.3773 31.5619 44.6732C32.8553 45.9691 33.5821 47.725 33.5829 49.556V54.4C33.6449 59.563 36.9329 60.206 39.4589 60.206H45.7749C52.9519 60.206 55.0099 48.277 55.0939 47.769C55.1146 47.6443 55.1036 47.5163 55.0619 47.397L49.6219 31.863C50.0827 31.5007 50.4181 31.003 50.5809 30.4399C51.4279 30.4399 52.3099 30.4399 52.9149 30.4399C53.1205 30.4522 53.3254 30.4065 53.5062 30.308C53.6871 30.2095 53.8366 30.0622 53.9379 29.8829C54.0463 29.6705 54.0964 29.4331 54.0829 29.1949C54.0839 28.2463 54.4613 27.3369 55.1321 26.6661C55.8029 25.9953 56.7123 25.618 57.6609 25.6169H59.1879V32.7729H58.2939H58.2329C57.8982 32.7755 57.5685 32.8551 57.2695 33.0057C56.9706 33.1562 56.7103 33.3736 56.5089 33.641C56.317 34.0021 56.2049 34.4002 56.1801 34.8083C56.1552 35.2165 56.2182 35.6252 56.3649 36.007C56.3719 36.029 59.7799 44.5569 59.7799 44.5569C59.8331 44.6903 59.9232 44.8057 60.0398 44.8895C60.1564 44.9733 60.2945 45.0221 60.4379 45.03C63.1508 45.1868 65.7721 46.0681 68.0287 47.582C70.2854 49.096 72.0949 51.1872 73.2689 53.6379H59.4619C59.2985 53.638 59.1395 53.6913 59.0089 53.7896C58.8783 53.8878 58.7832 54.0259 58.7379 54.183C57.0769 59.943 53.152 66.0989 47.127 66.0989V66.101ZM65.0269 70.975C62.7664 70.9723 60.595 70.0932 58.9694 68.5225C57.3437 66.9519 56.3904 64.812 56.3099 62.553C57.9804 60.3259 59.2376 57.8171 60.0219 55.1459H61.2759L64.3289 62.5389C64.3861 62.6774 64.4832 62.7956 64.6079 62.8786C64.7326 62.9616 64.8792 63.0056 65.0289 63.0049C65.1274 63.0049 65.2249 62.9855 65.3159 62.9479C65.5006 62.8716 65.6473 62.7251 65.724 62.5406C65.8007 62.3561 65.801 62.1487 65.7249 61.964L62.9099 55.147H70.0769C71.2118 55.9512 72.1376 57.0154 72.7771 58.2505C73.4166 59.4857 73.7512 60.856 73.7529 62.2469C73.7508 64.5601 72.8312 66.7779 71.1959 68.4138C69.5605 70.0497 67.343 70.97 65.0299 70.973L65.0269 70.975Z" fill="black"/>
<path d="M3.51001 23.068H18.51L20.641 29.856L20.306 40.506C20.306 40.506 15.668 40.815 15.431 41.138C15.194 41.461 3.51208 41.618 3.51208 41.618L1.302 36.557L2.14209 23.719L3.51001 23.068Z" fill="#0047BA"/>
<path d="M65.03 73.113C62.6784 73.1144 60.3899 72.3519 58.509 70.9403C56.6282 69.5287 55.2568 67.5444 54.6011 65.286C52.5525 67.1483 49.8944 68.1984 47.1261 68.239H31.8771C31.5228 68.24 31.1818 68.1042 30.925 67.86L26.795 63.96C26.3805 66.5089 25.075 68.828 23.1108 70.5046C21.1467 72.1813 18.6515 73.1066 16.0691 73.116C13.4305 73.1075 10.8846 72.1423 8.90369 70.3994C6.92276 68.6564 5.64133 66.254 5.29712 63.638H1.38403C1.01986 63.6367 0.670747 63.4926 0.411743 63.2366C0.152739 62.9806 0.00452318 62.6331 -0.000976562 62.269C-0.00697656 61.782 -0.0699162 50.254 5.98608 44.169C6.2977 43.8561 6.62508 43.5594 6.96704 43.28H4.39807C3.23112 43.28 2.1119 42.8164 1.28674 41.9913C0.461583 41.1661 -0.00195312 40.047 -0.00195312 38.88V25.98C-0.000629759 24.8134 0.463335 23.6951 1.28821 22.8702C2.11308 22.0453 3.23152 21.5813 4.39807 21.58H17.2981C18.0798 21.5771 18.8479 21.7844 19.5221 22.18C19.8309 19.9036 20.6035 17.7148 21.7921 15.749C20.34 14.0246 19.5444 11.8423 19.546 9.58801C19.5484 7.04505 20.5596 4.60692 22.3578 2.80878C24.1559 1.01063 26.5941 -0.000607813 29.1371 -0.00299072C31.68 -0.000607813 34.1181 1.01063 35.9163 2.80878C37.7144 4.60692 38.7256 7.04505 38.728 9.58801C38.728 14.205 38.3631 17.609 36.5791 19.219C36.3247 19.4488 35.994 19.576 35.6511 19.576C35.556 19.5762 35.4611 19.5665 35.368 19.547L35.243 19.521L39.2761 25.628L48.1641 26.282C48.7784 26.3293 49.3686 26.5417 49.8722 26.8967C50.3758 27.2518 50.7741 27.7363 51.025 28.299H52.019C52.2328 26.9552 52.9182 25.7314 53.9525 24.8472C54.9868 23.963 56.3023 23.4761 57.6631 23.474H59.9441C60.3113 23.4745 60.6632 23.6206 60.9229 23.8802C61.1825 24.1399 61.3286 24.4918 61.3291 24.859V33.522C61.3286 33.8891 61.1825 34.2411 60.9229 34.5007C60.6632 34.7604 60.3113 34.9065 59.9441 34.907H58.3611L58.316 34.913C58.3316 35.0583 58.3605 35.2019 58.4021 35.342L61.4491 42.964C72.0151 44.064 75.6951 53.814 75.7321 53.914C75.8087 54.1234 75.8338 54.3481 75.8051 54.5692C75.7763 54.7903 75.6947 55.0011 75.5671 55.184C75.4395 55.3667 75.2697 55.5159 75.0721 55.619C74.8745 55.722 74.6549 55.7759 74.4321 55.776H73.7491C75.1449 57.6451 75.8971 59.9162 75.8931 62.249C75.8902 65.1292 74.7447 67.8907 72.7082 69.9274C70.6716 71.9642 67.9103 73.1098 65.03 73.113ZM56.9551 62.753C57.0746 64.811 57.9783 66.7449 59.4803 68.1568C60.9824 69.5687 62.9686 70.351 65.03 70.343C67.1755 70.3408 69.2326 69.4877 70.7496 67.9706C72.2667 66.4535 73.1199 64.3965 73.1221 62.251C73.1189 60.994 72.8237 59.7549 72.2596 58.6316C71.6956 57.5082 70.8783 56.5313 69.8721 55.778H63.8551L66.3101 61.722C66.4498 62.0616 66.4491 62.4429 66.3081 62.782C66.1671 63.1211 65.8974 63.3905 65.5581 63.531C65.3904 63.6005 65.2106 63.6362 65.0291 63.636C64.7547 63.6366 64.4863 63.5555 64.2582 63.4031C64.0301 63.2506 63.8525 63.0337 63.748 62.78L60.8561 55.78H60.4861C59.7037 58.2839 58.5104 60.6404 56.9551 62.753ZM8.09912 63.635C8.43538 65.5079 9.4165 67.2041 10.8724 68.4293C12.3284 69.6546 14.1672 70.3316 16.0701 70.343C17.9729 70.3316 19.8118 69.6546 21.2677 68.4293C22.7236 67.2041 23.7048 65.5079 24.041 63.635H8.09912ZM47.1261 65.468C52.8021 65.468 56.5331 59.548 58.1331 54.008C58.2175 53.7201 58.3927 53.4672 58.6326 53.287C58.8724 53.1069 59.1641 53.009 59.4641 53.008H72.209C71.0229 50.8865 69.3185 49.1002 67.255 47.8157C65.1915 46.5313 62.8363 45.7907 60.4091 45.663C60.1459 45.6476 59.8925 45.5577 59.6785 45.4039C59.4644 45.25 59.2985 45.0385 59.2001 44.794C55.7821 36.243 55.7781 36.23 55.7681 36.194C55.5901 35.722 55.5181 35.2166 55.5574 34.7137C55.5966 34.2108 55.7461 33.7227 55.9951 33.284C56.2479 32.9376 56.5773 32.6544 56.9578 32.4567C57.3382 32.2589 57.7594 32.1519 58.1881 32.144C58.2271 32.144 58.264 32.144 58.3 32.144H58.562V26.251H57.6621C56.8808 26.2518 56.1316 26.5625 55.5791 27.115C55.0266 27.6675 54.7159 28.4166 54.7151 29.198C54.7294 29.5425 54.6525 29.8847 54.4921 30.19C54.3358 30.4676 54.1063 30.6969 53.8285 30.8528C53.5507 31.0087 53.2355 31.0852 52.9171 31.074C52.4241 31.074 51.0171 31.074 51.0171 31.074C50.8547 31.4363 50.6299 31.7674 50.353 32.052L55.6531 47.192C55.7298 47.4114 55.7501 47.6466 55.712 47.876C55.625 48.405 53.478 60.841 45.77 60.841H39.4541C37.8631 60.841 33.023 60.841 32.946 54.411V49.558C32.9453 47.894 32.2846 46.2982 31.1088 45.1207C29.933 43.9432 28.3381 43.2802 26.6741 43.277H15.0601C13.7433 43.2407 12.433 43.474 11.2096 43.9626C9.98624 44.4511 8.87563 45.1846 7.94604 46.118C3.83105 50.25 2.98101 57.793 2.80701 60.866H26.998C27.352 60.8655 27.6925 61.0012 27.9491 61.245L32.42 65.47L47.1261 65.468ZM26.682 40.505C29.0806 40.509 31.3797 41.4642 33.0748 43.1613C34.77 44.8583 35.7228 47.1584 35.7241 49.557V54.386C35.7621 57.497 37.0141 58.068 39.4651 58.068H45.7781C50.6051 58.068 52.5911 49.391 52.9231 47.754L47.7941 33.111L37.4431 33.873C37.3491 33.88 37.257 33.883 37.165 33.883C36.2689 33.8823 35.4032 33.5572 34.728 32.968L26.3721 25.644C26.0964 25.4016 25.928 25.0599 25.9038 24.6937C25.8796 24.3274 26.0016 23.9665 26.243 23.69C26.3731 23.5417 26.5334 23.4229 26.7131 23.3415C26.8928 23.2601 27.0878 23.2179 27.285 23.218C27.621 23.2183 27.9455 23.3406 28.1981 23.562L36.55 30.883C36.721 31.0326 36.9409 31.1144 37.1681 31.113H37.2411L47.9591 30.324C48.1117 30.3122 48.255 30.2463 48.3632 30.1381C48.4714 30.0299 48.5373 29.8866 48.5491 29.734C48.5554 29.6505 48.5451 29.5665 48.5187 29.487C48.4922 29.4075 48.4501 29.3341 48.395 29.271C48.3405 29.2073 48.2739 29.1551 48.1991 29.1173C48.1243 29.0795 48.0427 29.057 47.9591 29.051L38.3921 28.351C38.1812 28.3345 37.9767 28.2703 37.7942 28.1635C37.6116 28.0566 37.4557 27.9098 37.338 27.734L31.389 18.726L24.149 17.213C23.361 18.339 21.694 21.688 21.696 29.813V38.88C21.6971 39.4385 21.5905 39.9919 21.3821 40.51L26.682 40.505ZM4.40112 24.349C3.96925 24.3495 3.55514 24.5213 3.24976 24.8267C2.94437 25.1321 2.77262 25.5461 2.77209 25.978V38.878C2.77236 39.31 2.94398 39.7243 3.24939 40.0299C3.5548 40.3355 3.96907 40.5075 4.40112 40.508H17.301C17.7331 40.5075 18.1473 40.3355 18.4528 40.0299C18.7582 39.7243 18.9298 39.31 18.9301 38.878V25.978C18.9295 25.5461 18.7578 25.1321 18.4524 24.8267C18.147 24.5213 17.7329 24.3495 17.301 24.349H4.40112ZM35.083 16.659C35.888 15.096 35.9511 11.576 35.9561 9.95898L27.1021 8.77698C26.7383 8.72774 26.4089 8.53635 26.186 8.24469C25.9632 7.95303 25.865 7.58491 25.9131 7.22101C25.9589 6.8891 26.123 6.58487 26.3752 6.36438C26.6275 6.14389 26.951 6.02195 27.286 6.021C27.3469 6.02117 27.4077 6.02514 27.468 6.03296L35.4861 7.10297C34.988 5.8248 34.115 4.72718 32.9817 3.95422C31.8484 3.18127 30.5079 2.76914 29.1361 2.77197C27.328 2.77409 25.5945 3.49331 24.3159 4.77185C23.0374 6.05039 22.3182 7.78385 22.316 9.59198C22.3203 11.3979 23.0369 13.1292 24.3101 14.41L35.083 16.659Z" fill="black"/>
<path d="M38.3772 38.942C38.4252 38.958 43.1772 40.561 43.5422 45.086V51.5321C43.5422 51.732 43.6216 51.9238 43.763 52.0652C43.9044 52.2066 44.0962 52.286 44.2962 52.286C44.4961 52.286 44.688 52.2066 44.8294 52.0652C44.9708 51.9238 45.0502 51.732 45.0502 51.5321V45.056C45.0502 45.037 45.0502 45.018 45.0502 44.998C44.6242 39.457 39.0832 37.586 38.8502 37.509C38.7562 37.4783 38.657 37.4663 38.5584 37.4739C38.4597 37.4815 38.3635 37.5084 38.2753 37.5532C38.1871 37.5979 38.1086 37.6596 38.0442 37.7348C37.9798 37.8099 37.9309 37.897 37.9002 37.991C37.8378 38.1804 37.8529 38.3868 37.9423 38.565C38.0317 38.7432 38.1881 38.8788 38.3772 38.942Z" fill="black"/>
</svg>
