<svg width="67" height="53" viewBox="0 0 67 53" fill="none" xmlns="http://www.w3.org/2000/svg">
<g clip-path="url(#clip0_345_1156)">
<path d="M60.2937 4.63046C60.8536 4.63046 61.3906 4.85461 61.7865 5.25359C62.1825 5.65258 62.4049 6.19372 62.4049 6.75797V40.0472C62.4049 40.6115 62.1825 41.1526 61.7865 41.5516C61.3906 41.9506 60.8536 42.1747 60.2937 42.1747H6.70633C6.14639 42.1747 5.60939 41.9506 5.21345 41.5516C4.81752 41.1526 4.59508 40.6115 4.59508 40.0472V6.75797C4.59508 6.19372 4.81752 5.65258 5.21345 5.25359C5.60939 4.85461 6.14639 4.63046 6.70633 4.63046H60.2937ZM60.2937 0H6.70633C4.92831 0.00198748 3.22367 0.714624 1.96642 1.98156C0.709164 3.24849 0.0019723 4.96625 0 6.75797L0 40.0472C0.0019723 41.8389 0.709164 43.5567 1.96642 44.8236C3.22367 46.0906 4.92831 46.8032 6.70633 46.8052H60.2937C62.0717 46.8032 63.7763 46.0906 65.0336 44.8236C66.2908 43.5567 66.998 41.8389 67 40.0472V6.75797C66.998 4.96625 66.2908 3.24849 65.0336 1.98156C63.7763 0.714624 62.0717 0.00198748 60.2937 0V0Z" fill="black"/>
<path d="M48.2782 53H18.7206C18.1113 53 17.5269 52.756 17.096 52.3219C16.6652 51.8877 16.4231 51.2988 16.4231 50.6847C16.4231 50.0707 16.6652 49.4818 17.096 49.0476C17.5269 48.6134 18.1113 48.3695 18.7206 48.3695H48.2782C48.8875 48.3695 49.4719 48.6134 49.9028 49.0476C50.3337 49.4818 50.5757 50.0707 50.5757 50.6847C50.5757 51.2988 50.3337 51.8877 49.9028 52.3219C49.4719 52.756 48.8875 53 48.2782 53Z" fill="black"/>
<path d="M41.1546 21.7106L28.6882 14.7787C28.3963 14.6161 28.0674 14.533 27.7339 14.5377C27.4004 14.5423 27.0738 14.6346 26.7865 14.8053C26.4992 14.9761 26.2611 15.2194 26.0956 15.5112C25.9301 15.803 25.8431 16.1333 25.843 16.4694V30.3358C25.8431 30.6719 25.9301 31.0022 26.0956 31.294C26.2611 31.5858 26.4992 31.8291 26.7865 31.9999C27.0738 32.1706 27.4004 32.2629 27.7339 32.2675C28.0674 32.2722 28.3963 32.1891 28.6882 32.0265L41.1496 25.0946C41.4498 24.9279 41.7002 24.6831 41.8748 24.3858C42.0494 24.0885 42.1417 23.7495 42.1422 23.4041C42.1427 23.0586 42.0514 22.7194 41.8777 22.4215C41.704 22.1237 41.4543 21.8782 41.1546 21.7106Z" fill="#0047BA"/>
</g>
<defs>
<clipPath id="clip0_345_1156">
<rect width="67" height="53" fill="white"/>
</clipPath>
</defs>
</svg>
