<svg width="71" height="57" viewBox="0 0 71 57" fill="none" xmlns="http://www.w3.org/2000/svg">
<g clip-path="url(#clip0_341_1116)">
<path d="M11.9125 30.8928H0.774414V54.6741H11.9125V30.8928Z" fill="#0047BA"/>
<path fill-rule="evenodd" clip-rule="evenodd" d="M65.5097 8.57L65.5007 8.47491L65.4865 8.38881C65.4613 8.2819 65.407 8.18396 65.3296 8.10575C65.2522 8.02754 65.1547 7.97208 65.0477 7.94546L64.6927 7.84523L52.4176 4.30104L47.6242 2.94145L40.1386 0.828817C39.7986 0.752699 39.446 0.752699 39.1061 0.828817L31.6204 2.94145L26.8257 4.30104L14.5532 7.84523L14.1982 7.94546C14.0908 7.97167 13.9927 8.02694 13.9148 8.10518C13.8369 8.18342 13.7822 8.28158 13.7568 8.38881L13.7426 8.47491L13.7336 8.57V17.2274C13.7376 17.3632 13.7804 17.4951 13.857 17.6075C13.9336 17.7199 14.0407 17.8083 14.166 17.8623C14.2858 17.9254 14.4127 17.9742 14.5441 18.0075L15.1314 18.1655V31.8809L14.8268 31.8668C14.4034 31.845 13.984 31.8218 13.5607 31.8038L13.2883 31.7897V30.8902C13.2878 30.7107 13.2517 30.5331 13.1822 30.3675C13.1126 30.2019 13.011 30.0515 12.8831 29.9251L12.8237 29.866C12.5728 29.6436 12.2484 29.521 11.9125 29.5216H2.14894C1.7859 29.5227 1.43783 29.6658 1.17968 29.9199C1.05078 30.0473 0.948579 30.1988 0.879009 30.3658C0.809439 30.5328 0.773888 30.7119 0.77442 30.8927V53.3054C0.776788 53.6677 0.922363 54.0144 1.17962 54.2705C1.43688 54.5267 1.78512 54.6716 2.14894 54.674H11.9125C12.2775 54.6733 12.6274 54.5291 12.886 54.2728C13.1447 54.0165 13.2911 53.6688 13.2935 53.3054V50.3189L13.7297 50.5952C15.001 51.3843 16.2749 52.181 17.581 52.916C18.7177 53.5685 19.8964 54.1454 21.1095 54.6432C22.4857 55.1925 23.917 55.5936 25.3789 55.8395C27.156 56.1241 28.9547 56.2531 30.7544 56.2251L51.558 56.1158C52.3957 56.1158 53.2513 56.094 54.0657 55.8768C54.9562 55.639 55.767 55.1693 56.4147 54.5159C56.7386 54.1998 57.0664 53.8863 57.3891 53.5689C58.265 52.7241 59.14 51.8734 60.0142 51.0167C62.9818 48.1331 65.9421 45.2425 68.895 42.3452C69.5234 41.728 69.9538 40.9391 70.1318 40.0783C70.3097 39.2176 70.2273 38.3236 69.8949 37.5094C69.5625 36.6953 68.995 35.9977 68.2643 35.5047C67.5335 35.0118 66.6724 34.7457 65.7898 34.7402C65.3462 34.736 64.9045 34.7988 64.4798 34.9265L64.1107 35.0345V18.1655L64.6979 18.0075C64.8293 17.9742 64.9562 17.9254 65.0761 17.8623C65.2013 17.8083 65.3085 17.7199 65.3851 17.6075C65.4616 17.4951 65.5044 17.3632 65.5084 17.2274L65.5097 8.57ZM49.0219 17.0514L49.031 17.1413L49.0542 17.2416C49.0766 17.324 49.1161 17.4009 49.1701 17.4673C49.2241 17.5337 49.2915 17.5881 49.3678 17.6271C49.4665 17.6821 49.5774 17.7117 49.6905 17.7132C49.757 17.7114 49.823 17.7006 49.8867 17.6811L50.1603 17.6091L52.7415 16.9113L55.6003 16.1403C55.73 16.1033 55.8475 16.0328 55.941 15.9359C56.066 15.8089 56.1364 15.6383 56.1372 15.4605V11.3766L64.2681 9.25879V16.8509L63.0937 17.1683L62.984 17.1915L54.7949 19.412L51.5993 20.2782L49.1471 20.9451L40.2418 23.3559V15.517L45.8173 14.0598L49.0219 13.2258V17.0514ZM27.764 46.9559C27.6506 46.8565 27.5047 46.8016 27.3536 46.8016C27.2024 46.8016 27.0565 46.8565 26.9431 46.956C26.8297 47.0554 26.7567 47.1927 26.7377 47.342C26.7187 47.4913 26.7551 47.6423 26.8399 47.7668C27.6496 48.6714 28.6368 49.4011 29.7407 49.911C30.8446 50.4209 32.0417 50.7001 33.2582 50.7314H33.2711L49.4182 50.8805C50.6563 50.8901 51.8474 50.4095 52.7297 49.5446C53.6119 48.6796 54.1129 47.5012 54.1225 46.2684C54.1321 45.0357 53.6495 43.8497 52.7808 42.9712C51.9121 42.0928 50.7285 41.594 49.4904 41.5844L42.0255 41.5304H41.7028C41.3066 41.5304 40.9104 41.5304 40.5141 41.5124L40.2405 41.5034V24.6384L40.4496 24.5831L43.2503 23.8223C43.3909 23.7864 43.5368 23.7491 43.6775 23.7041H43.6865H43.6955L49.4724 22.1402L62.8781 18.5048V35.7965L62.7826 35.8826L62.6329 36.0188C60.6299 37.9892 58.6191 39.943 56.6005 41.88C56.4829 41.9924 56.415 42.1468 56.4118 42.3091C56.4085 42.4714 56.4701 42.6284 56.5831 42.7455C56.696 42.8625 56.8511 42.9301 57.0141 42.9334C57.1771 42.9366 57.3347 42.8753 57.4523 42.7628C59.4769 40.8189 61.4903 38.8627 63.4925 36.894C63.7958 36.597 64.1549 36.3624 64.5493 36.2036C64.9437 36.0449 65.3657 35.965 65.7911 35.9687C66.4306 35.9721 67.0547 36.1646 67.5841 36.5219C68.1135 36.8792 68.5244 37.385 68.7645 37.9752C69.0046 38.5654 69.0631 39.2134 68.9326 39.8368C68.8021 40.4602 68.4885 41.0309 68.0316 41.4765C65.0898 44.3627 62.1416 47.2429 59.1869 50.1172C57.975 51.2956 56.7644 52.465 55.5538 53.6395C55.0594 54.1436 54.4387 54.507 53.756 54.692C53.05 54.877 52.2756 54.8912 51.5516 54.895L30.7454 55.0004C29.0538 55.0245 27.3632 54.9032 25.6926 54.638C24.295 54.4023 22.9263 54.0207 21.609 53.4995C20.3531 52.9948 19.1358 52.3995 17.9669 51.7184C16.6207 50.9576 15.3095 50.1326 13.9982 49.3115C13.8072 49.1945 13.611 49.0724 13.42 48.9542L13.2909 48.8681V33.0182L13.5904 33.0323C17.6287 33.2264 21.7716 33.4487 25.6861 34.523C30.0975 35.7335 33.6661 37.9001 36.8926 41.1128C37.4024 41.6268 38.0039 42.2012 38.6814 42.4685C39.0593 42.6036 39.455 42.6828 39.8559 42.7037C40.4664 42.75 41.0949 42.7448 41.7054 42.75H42.0229L49.4801 42.8052C50.3814 42.8279 51.2376 43.202 51.8647 43.8469C52.4917 44.4919 52.8393 45.3562 52.8327 46.2539C52.8261 47.1515 52.4658 48.0106 51.8294 48.6464C51.193 49.2822 50.3313 49.6438 49.4298 49.6533L33.2969 49.5042C32.2466 49.4749 31.2132 49.2327 30.2601 48.7923C29.3121 48.3556 28.4646 47.7292 27.7705 46.9521L27.764 46.9559ZM12.0493 30.7527V53.4455H2.01213V30.7527H12.0493ZM16.3652 31.9529V18.5048L29.7709 22.1402L35.5478 23.7041C35.5524 23.7059 35.5574 23.7059 35.562 23.7041C35.6988 23.7491 35.8485 23.7864 35.9853 23.8223L38.7899 24.5831L38.9989 24.6384V41.2631L38.5433 40.9367C38.2669 40.7255 38.0056 40.4953 37.7612 40.248C36.0038 38.4677 34.0113 36.9339 31.8385 35.6886C29.9147 34.6115 27.8583 33.7886 25.721 33.2405C22.7525 32.4695 19.6847 32.1624 16.6298 31.967L16.3652 31.9529ZM50.2597 12.4098L48.6567 11.951L27.2323 5.45631L32.5445 3.95665L54.9072 10.86V15.057L52.4228 15.7316L50.2597 16.3125V12.4098ZM34.7179 3.3411L38.6376 2.23081L39.6223 1.9481L40.6045 2.23467L47.2925 4.1237L52.0898 5.48458L62.4045 8.48133L56.4005 10.0388L34.7179 3.3411ZM46.562 12.5999L45.5114 12.8724L39.8211 14.3502C39.7849 14.3643 39.7436 14.3733 39.7075 14.3862L39.621 14.4132L39.5294 14.3862C39.4932 14.3733 39.4571 14.3643 39.4197 14.3502L33.7306 12.8724L27.1406 11.1581L24.0057 10.3472L16.8337 8.48133L25.0821 6.08342L46.562 12.5999ZM27.6363 20.2782L24.4407 19.412L16.2516 17.1915L16.1419 17.1683L14.9675 16.8509V9.25879L23.7037 11.5308L26.8348 12.3455L33.417 14.0598L38.9976 15.5145V23.3597L27.6311 20.282L27.6363 20.2782Z" fill="black"/>
<path d="M30.5195 56.9998C28.7521 57.0161 26.9865 56.882 25.2421 56.5989C23.7262 56.3443 22.2421 55.9285 20.8152 55.3588C19.5704 54.8487 18.361 54.2567 17.195 53.5867C16.1328 52.9891 15.0836 52.3466 14.0627 51.7131V53.3053C14.06 53.8721 13.8325 54.415 13.4298 54.8157C13.0271 55.2164 12.4818 55.4425 11.9125 55.4449H2.14889C1.57981 55.4422 1.03481 55.2159 0.632396 54.8152C0.229987 54.4145 0.00271483 53.8719 0 53.3053L0 30.8926C0.000341925 30.3252 0.226853 29.7812 0.629774 29.38C1.0327 28.9788 1.57908 28.7533 2.14889 28.753H11.9125C12.4361 28.7537 12.9413 28.9458 13.3322 29.2927L13.4251 29.3826C13.6274 29.5794 13.7884 29.8141 13.8987 30.0734C14.0091 30.3326 14.0665 30.611 14.0678 30.8926V31.0545L14.3621 31.0699V18.7616H14.3544C14.1631 18.7135 13.9785 18.6423 13.8046 18.5496C13.555 18.4311 13.3438 18.2451 13.1953 18.0129C13.0467 17.7807 12.9667 17.5116 12.9644 17.2363V8.53387L13.0031 8.22802L13.0147 8.18819C13.0732 7.95526 13.1926 7.74192 13.3608 7.56991C13.529 7.3979 13.74 7.27336 13.9723 7.20897L13.993 7.20255L14.3479 7.1036L26.6153 3.56069L31.4126 2.19982L38.8982 0.0871839C39.3802 -0.0310144 39.8837 -0.0310144 40.3657 0.0871839L47.8307 2.19982L52.6292 3.55941L64.9057 7.10488L65.2761 7.20897C65.5084 7.27336 65.7194 7.3979 65.8876 7.56991C66.0558 7.74192 66.1753 7.95526 66.2337 8.18819L66.2518 8.26786L66.2841 8.56985V17.2273C66.281 17.5041 66.1997 17.7744 66.0495 18.0074C65.8993 18.2403 65.6863 18.4265 65.4348 18.5445C65.2629 18.6357 65.0804 18.7056 64.8915 18.7526H64.8837V34.0448C65.9822 33.8594 67.1114 34.0275 68.1073 34.5249C69.1032 35.0222 69.9138 35.8228 70.4214 36.8103C70.929 37.7978 71.1072 38.9207 70.9299 40.0159C70.7526 41.1111 70.2292 42.1214 69.4358 42.9002C66.0634 46.2066 63.2408 48.9618 60.5511 51.573C59.6735 52.4301 58.7868 53.2886 57.9195 54.1264C57.762 54.2806 57.5994 54.4387 57.4355 54.5955C57.2716 54.7522 57.1103 54.9103 56.9489 55.0697C56.2068 55.8183 55.2767 56.3552 54.2554 56.6246C53.3687 56.8623 52.4705 56.8816 51.5528 56.8906L30.7505 56.9998H30.5195ZM14.0678 48.4465L14.1969 48.5287L14.4086 48.6572L14.597 48.7754C15.8192 49.5465 17.0827 50.3316 18.3527 51.0487C19.4889 51.7134 20.6731 52.2933 21.8955 52.7835C23.1629 53.2857 24.4803 53.6527 25.8255 53.8784C27.451 54.1358 29.0957 54.2532 30.7415 54.2292L51.5438 54.12C52.2898 54.12 52.957 54.0981 53.5533 53.9414C54.1065 53.792 54.6087 53.4963 55.0065 53.0855L56.2146 51.9161C57.0251 51.1305 57.8352 50.3445 58.6448 49.558C61.4545 46.8299 64.3468 44.0053 67.4869 40.9212C67.7165 40.6955 67.8992 40.4269 68.0245 40.1309C68.1498 39.8349 68.2154 39.5172 68.2174 39.196C68.2195 38.8748 68.158 38.5563 68.0364 38.2587C67.9148 37.9612 67.7355 37.6904 67.5089 37.4618C67.2822 37.2332 67.0125 37.0513 66.7152 36.9265C66.4179 36.8017 66.0988 36.7364 65.7762 36.7344C65.4536 36.7324 65.1337 36.7936 64.8349 36.9147C64.536 37.0358 64.2641 37.2142 64.0345 37.4399C61.8714 39.5629 59.8942 41.4853 57.9892 43.3127L57.9776 43.3242C57.7093 43.5646 57.3577 43.6917 56.997 43.6786C56.6364 43.6654 56.295 43.5132 56.0451 43.254C55.7951 42.9948 55.6562 42.6489 55.6578 42.2896C55.6593 41.9303 55.8011 41.5856 56.0532 41.3285L56.0636 41.3195C57.9724 39.487 59.9432 37.5723 62.0882 35.4648L62.1037 35.4494V19.5095L49.6763 22.8802L43.9717 24.4223L43.8762 24.4699H43.8026C43.6955 24.502 43.5897 24.529 43.4941 24.5534L43.4438 24.5662L41.0149 25.2268V40.7515C41.2407 40.7515 41.4679 40.7515 41.7015 40.7515H42.0357L49.4956 40.8055C50.939 40.8157 52.3193 41.3965 53.3327 42.42C54.3461 43.4435 54.9097 44.8259 54.8994 46.2632C54.8892 47.7004 54.3059 49.0747 53.278 50.0837C52.25 51.0928 50.8616 51.6539 49.4181 51.6437L33.2375 51.4946C31.9141 51.4631 30.6116 51.159 29.4121 50.6015C28.2149 50.0451 27.1432 49.253 26.2617 48.273L26.2049 48.1997C26.012 47.9205 25.9282 47.5808 25.9694 47.2444C26.0105 46.908 26.1738 46.5981 26.4284 46.3732C26.683 46.1483 27.0114 46.0238 27.3517 46.0232C27.6921 46.0226 28.0209 46.1458 28.2764 46.3698L28.3422 46.4354C28.9663 47.1322 29.727 47.6946 30.5775 48.0879C31.4332 48.4832 32.3605 48.7018 33.3034 48.7305L49.4362 48.8795C50.1334 48.8702 50.7991 48.5891 51.2906 48.0967C51.7821 47.6042 52.0602 46.9396 52.0653 46.2454C52.0703 45.5512 51.802 44.8826 51.3177 44.3831C50.8335 43.8836 50.1719 43.593 49.4749 43.5735L42.0177 43.5183L41.4227 43.5118C40.891 43.5118 40.3424 43.5118 39.7991 43.4669C39.3226 43.4395 38.8527 43.3434 38.4039 43.1816C37.605 42.8667 36.9494 42.2538 36.3389 41.6524C33.1123 38.4397 29.6599 36.408 25.4731 35.2605C21.7213 34.2324 17.679 33.9973 14.0588 33.8199L14.0678 48.4465ZM2.78646 52.6743H11.2749V31.5235H2.78646V52.6743ZM17.1395 31.2267C19.8369 31.4079 22.9332 31.7137 25.9158 32.4938C28.1186 33.0568 30.2378 33.9049 32.2192 35.0163C34.4176 36.277 36.4368 37.8246 38.2232 39.6181V25.2255L36.9674 24.8849L35.6988 24.5444C35.5955 24.5174 35.4806 24.4879 35.3658 24.4519L35.3219 24.439L29.5683 22.8802L17.1395 19.5095V31.2267ZM41.0161 16.108V22.3495L50.8339 19.692L51.4057 19.5327L62.8355 16.4344L62.922 16.4164L63.5027 16.2596V10.2571L56.9167 11.9714V15.4642C56.9141 15.8415 56.7663 16.2035 56.5037 16.4755C56.3148 16.6697 56.0781 16.8111 55.8171 16.8855L50.0931 18.4275C49.9627 18.4656 49.8276 18.4855 49.6917 18.4866C49.4521 18.4859 49.2165 18.4254 49.0064 18.3106C48.8379 18.2225 48.6892 18.101 48.5696 17.9536C48.4499 17.8062 48.3619 17.636 48.3108 17.4534L48.2669 17.2645L48.2488 17.0499V14.2228L41.0161 16.108ZM28.4119 19.692L38.2297 22.3495V16.1093L33.2272 14.8049L15.7457 10.2571V16.2609L16.4555 16.4485L28.4106 19.6894L28.4119 19.692ZM48.8774 11.2106L51.034 11.8223V15.3048L52.2201 14.9874L54.1328 14.4734V11.4278L32.538 4.76094L29.98 5.48314L48.8774 11.2106ZM19.7389 8.43877L24.2044 9.59532L27.3355 10.4088L33.928 12.1307L39.6223 13.6086L43.7123 12.5471L25.073 6.89285L19.7389 8.43877ZM55.6815 10.6234V10.6979L55.8106 10.6645L55.6815 10.6234ZM37.4359 3.37565L56.4237 9.23679L59.4979 8.43877L51.8729 6.22462L47.0795 4.86503L40.3966 2.97599L39.6223 2.75111L38.8556 2.97471L37.4359 3.37565Z" fill="black"/>
</g>
<defs>
<clipPath id="clip0_341_1116">
<rect width="71" height="57" fill="white"/>
</clipPath>
</defs>
</svg>
