<svg width="61" height="65" viewBox="0 0 61 65" fill="none" xmlns="http://www.w3.org/2000/svg">
<g clip-path="url(#clip0_342_1122)">
<path d="M29.4199 4.78762C28.1746 2.17416 26.8198 0 23.9077 0C20.9956 0 19.6408 2.17416 18.3955 4.78762C16.3266 9.11957 10.3523 7.52469 10.3523 12.8067H37.4601C37.4601 7.52469 31.4888 9.11957 29.4199 4.78762ZM23.9077 7.06752C23.5438 7.06752 23.1881 6.9604 22.8856 6.75973C22.5831 6.55905 22.3473 6.27383 22.2082 5.94014C22.069 5.60645 22.0327 5.23928 22.1037 4.88509C22.1748 4.5309 22.3502 4.20559 22.6076 3.95032C22.865 3.69505 23.1929 3.52129 23.5498 3.45101C23.9067 3.38074 24.2766 3.4171 24.6126 3.55552C24.9487 3.69393 25.2359 3.92816 25.4378 4.22859C25.6397 4.52903 25.7474 4.88215 25.7471 5.2433C25.7463 5.72713 25.5522 6.19089 25.2074 6.53287C24.8625 6.87485 24.3951 7.06712 23.9077 7.06752Z" fill="black"/>
<path d="M54.4 45.8182L42.555 57.5751L35.7795 50.8486L39.0892 47.5635L42.555 51.0064L51.0903 42.5331L54.4 45.8182Z" fill="black"/>
<path d="M47.8167 34.4768V10.1262C47.8169 9.76648 47.7457 9.41021 47.6071 9.07778C47.4685 8.74535 47.2653 8.44328 47.0091 8.18882C46.7529 7.93437 46.4487 7.73251 46.1138 7.5948C45.779 7.45708 45.4201 7.38619 45.0576 7.38619H36.8629C38.1786 8.26777 39.3654 9.59163 39.6295 11.8536H43.2887V34.4739C40.7217 34.8466 38.2907 35.8552 36.2199 37.4064C34.1491 38.9576 32.5054 41.0016 31.4404 43.3496C30.3754 45.6977 29.9234 48.2742 30.1261 50.8413C30.3289 53.4085 31.1798 55.8836 32.6005 58.0382H4.52647V11.8522H8.18725C8.44981 9.59163 9.63956 8.26777 10.9553 7.3847H2.75609C2.39365 7.3847 2.03477 7.45566 1.7 7.59351C1.36522 7.73135 1.06113 7.93339 0.805121 8.18804C0.549116 8.44269 0.346229 8.74496 0.208076 9.07755C0.0699233 9.41013 -0.000782666 9.76649 6.53438e-06 10.1262V59.164C-0.000190559 59.5234 0.0709523 59.8793 0.20937 60.2113C0.347789 60.5434 0.550769 60.8451 0.806715 61.0993C1.06266 61.3535 1.36656 61.5551 1.70104 61.6927C2.03552 61.8303 2.39403 61.9011 2.75609 61.9011H36.2357C38.1155 63.3054 40.2935 64.2651 42.6037 64.7071C44.9139 65.1491 47.2953 65.0616 49.5663 64.4515C51.8373 63.8414 53.9379 62.7246 55.7081 61.1863C57.4782 59.6481 58.8711 57.7289 59.7806 55.5753C60.6901 53.4216 61.0921 51.0902 60.956 48.7589C60.82 46.4276 60.1494 44.1579 58.9954 42.1229C57.8415 40.0879 56.2346 38.3413 54.2973 37.0162C52.36 35.6911 50.1435 34.8226 47.8167 34.4768ZM45.5407 62.0262C43.076 62.0276 40.6662 61.3035 38.6162 59.9455C36.5661 58.5874 34.9679 56.6564 34.0237 54.3967C33.0795 52.137 32.8316 49.6501 33.3116 47.2506C33.7915 44.851 34.9776 42.6467 36.7199 40.9163C38.4622 39.186 40.6824 38.0073 43.0996 37.5295C45.5168 37.0517 48.0225 37.2962 50.2998 38.232C52.577 39.1679 54.5235 40.753 55.8929 42.787C57.2624 44.821 57.9934 47.2124 57.9934 49.6588C57.9882 52.9355 56.6747 56.0767 54.3406 58.394C52.0064 60.7113 48.8421 62.0158 45.5407 62.0217V62.0262Z" fill="black"/>
<path d="M54.4 45.8182L42.555 57.5751L35.7795 50.8486L39.0892 47.5635L42.555 51.0064L51.0903 42.5331L54.4 45.8182Z" fill="black"/>
<path d="M54.4 45.8182L42.555 57.5751L35.7795 50.8486L39.0892 47.5635L42.555 51.0064L51.0903 42.5331L54.4 45.8182Z" fill="#0047BA"/>
<path d="M12.6132 24.8376L10.8803 23.1161L9.22998 24.7542L12.6177 28.1167L18.5395 22.239L16.8891 20.601L12.6132 24.8376Z" fill="#0047BA"/>
<path d="M34.5823 25.9693H22.1221C21.8038 25.9693 21.4985 25.8438 21.2734 25.6204C21.0483 25.397 20.9219 25.0939 20.9219 24.778C20.9219 24.462 21.0483 24.159 21.2734 23.9356C21.4985 23.7122 21.8038 23.5867 22.1221 23.5867H34.5823C34.9006 23.5867 35.2059 23.7122 35.431 23.9356C35.6561 24.159 35.7825 24.462 35.7825 24.778C35.7825 25.0939 35.6561 25.397 35.431 25.6204C35.2059 25.8438 34.9006 25.9693 34.5823 25.9693Z" fill="#0047BA"/>
<path d="M12.6132 33.6548L10.8803 31.9304L9.22998 33.5685L12.6132 36.931L18.535 31.0503L16.8846 29.4122L12.6132 33.6548Z" fill="#0047BA"/>
<path d="M32.7819 34.7836H22.1221C21.8038 34.7836 21.4985 34.6581 21.2734 34.4347C21.0483 34.2113 20.9219 33.9083 20.9219 33.5923C20.9219 33.2764 21.0483 32.9733 21.2734 32.7499C21.4985 32.5265 21.8038 32.401 22.1221 32.401H32.7819C33.1002 32.401 33.4055 32.5265 33.6306 32.7499C33.8557 32.9733 33.9822 33.2764 33.9822 33.5923C33.9822 33.9083 33.8557 34.2113 33.6306 34.4347C33.4055 34.6581 33.1002 34.7836 32.7819 34.7836Z" fill="#0047BA"/>
</g>
<defs>
<clipPath id="clip0_342_1122">
<rect width="61" height="65" fill="white"/>
</clipPath>
</defs>
</svg>
