<svg width="87" height="70" viewBox="0 0 87 70" fill="none" xmlns="http://www.w3.org/2000/svg">
<g clip-path="url(#clip0_344_1134)">
<path d="M45.526 47.289C51.1325 47.289 55.6775 42.7536 55.6775 37.1589C55.6775 31.5642 51.1325 27.0288 45.526 27.0288C39.9195 27.0288 35.3745 31.5642 35.3745 37.1589C35.3745 42.7536 39.9195 47.289 45.526 47.289Z" fill="#0047BA"/>
<path d="M32.8125 37.162C32.8134 39.6042 33.54 41.9913 34.9004 44.0215C36.2607 46.0516 38.1938 47.6337 40.4551 48.5676C42.7164 49.5015 45.2045 49.7454 47.6047 49.2684C50.0049 48.7914 52.2095 47.6149 53.9397 45.8877C55.6699 44.1604 56.848 41.9601 57.3251 39.5647C57.8022 37.1694 57.5569 34.6867 56.6201 32.4305C55.6833 30.1743 54.0972 28.2459 52.0622 26.8892C50.0273 25.5325 47.6349 24.8083 45.1875 24.8083C41.9055 24.8113 38.7589 26.1139 36.4386 28.4302C34.1184 30.7464 32.8142 33.887 32.8125 37.162ZM35.3745 37.162C35.3754 35.2255 35.9517 33.3327 37.0306 31.723C38.1094 30.1133 39.6423 28.8589 41.4355 28.1184C43.2287 27.378 45.2016 27.1848 47.1049 27.5631C49.0081 27.9415 50.7562 28.8745 52.1281 30.2442C53.5 31.6139 54.4341 33.3587 54.8124 35.2581C55.1906 37.1575 54.996 39.1262 54.2531 40.9152C53.5103 42.7043 52.2525 44.2334 50.6389 45.3091C49.0252 46.3849 47.1282 46.9591 45.1875 46.9591C42.585 46.9562 40.09 45.9229 38.2502 44.0861C36.4104 42.2493 35.3762 39.7591 35.3745 37.162Z" fill="black"/>
<path d="M45.1873 49.9892C42.645 49.9895 40.1596 49.2375 38.0455 47.8282C35.9314 46.419 34.2836 44.4157 33.3105 42.0719C32.3373 39.7281 32.0825 37.1489 32.5783 34.6606C33.0741 32.1723 34.2983 29.8866 36.0959 28.0925C37.8935 26.2984 40.1839 25.0766 42.6774 24.5816C45.171 24.0865 47.7556 24.3404 50.1045 25.3112C52.4534 26.282 54.461 27.9261 55.8735 30.0356C57.286 32.145 58.04 34.6251 58.04 37.1621C58.0366 40.5628 56.6815 43.8232 54.2719 46.228C51.8624 48.6328 48.5952 49.9855 45.1873 49.9892ZM45.1873 25.2818C42.8326 25.2815 40.5307 25.978 38.5727 27.2833C36.6146 28.5885 35.0885 30.4438 34.1871 32.6146C33.2858 34.7854 33.0498 37.1742 33.509 39.4788C33.9682 41.7835 35.1019 43.9005 36.7669 45.5621C38.4318 47.2238 40.5531 48.3554 42.8626 48.8139C45.172 49.2725 47.5659 49.0373 49.7414 48.1382C51.9169 47.239 53.7763 45.7163 55.0846 43.7626C56.3928 41.8088 57.0911 39.5118 57.0911 37.1621C57.0882 34.0124 55.8331 30.9926 53.6014 28.7653C51.3697 26.538 48.3437 25.2852 45.1873 25.2818ZM45.1873 47.4326C43.1512 47.4351 41.1601 46.8349 39.4658 45.7079C37.7716 44.5809 36.4505 42.9777 35.6695 41.1012C34.8886 39.2247 34.683 37.1593 35.0787 35.1662C35.4744 33.173 36.4536 31.3418 37.8925 29.9042C39.3314 28.4666 41.1653 27.4871 43.1621 27.0898C45.159 26.6925 47.229 26.8952 49.1104 27.6721C50.9918 28.4491 52.6 29.7655 53.7315 31.4548C54.863 33.144 55.4669 35.1302 55.4669 37.1621C55.4644 39.8831 54.381 42.492 52.4541 44.4172C50.5272 46.3424 47.914 47.4268 45.1873 47.4326ZM45.1873 27.8384C43.3389 27.8359 41.5312 28.3806 39.993 29.4036C38.4549 30.4266 37.2553 31.8819 36.5462 33.5853C35.8371 35.2888 35.6503 37.1639 36.0093 38.9733C36.3684 40.7827 37.2573 42.4452 38.5635 43.7504C39.8697 45.0556 41.5345 45.9449 43.3472 46.3057C45.16 46.6664 47.0393 46.4825 48.7473 45.7772C50.4553 45.0719 51.9153 43.8769 52.9425 42.3433C53.9697 40.8098 54.518 39.0067 54.518 37.1621C54.5159 34.6921 53.5326 32.3237 51.7836 30.576C50.0346 28.8283 47.6625 27.8439 45.1873 27.8384Z" fill="black"/>
<path d="M3.99956 19.3086L9.98227 33.7864C10.0551 33.9734 10.1726 34.1397 10.3244 34.2712C10.4763 34.4026 10.6579 34.4952 10.8537 34.5408L19.0536 36.5355C22.7305 37.4303 25.6373 40.0516 26.8297 43.5567C29.5704 51.5752 36.9243 56.7799 45.1874 56.7799C45.9235 56.7755 46.6588 56.7329 47.3904 56.6521C55.04 55.7952 61.407 50.3395 63.6796 43.1211C64.7639 43.089 65.8342 42.8684 66.8426 42.4693L64.5969 65.324C64.487 66.0967 64.6272 66.8843 64.997 67.572C65.3667 68.2598 65.9468 68.8118 66.6528 69.1478C67.1638 69.3966 67.7242 69.5277 68.2928 69.5313C68.7936 69.5288 69.2888 69.4256 69.7488 69.228C70.2088 69.0303 70.6242 68.7422 70.9702 68.3808C80.0906 58.942 73.6223 43.8376 70.8421 38.453C70.9607 38.0329 71.0209 37.5985 71.0208 37.1621C71.0208 33.9521 67.7551 31.3435 63.667 31.203C62.831 28.5281 61.4288 26.0636 59.5551 23.9767C57.7437 21.9604 55.5283 20.3461 53.0523 19.238C50.5763 18.13 47.8947 17.5529 45.1811 17.5442H5.19199C4.98061 17.5436 4.77246 17.5959 4.58654 17.6962C4.40062 17.7966 4.24285 17.9418 4.12766 18.1186C4.01037 18.2914 3.93736 18.4902 3.91503 18.6977C3.89269 18.9051 3.92172 19.1149 3.99956 19.3086ZM27.2013 20.0976V24.5164C27.2065 24.6422 27.1862 24.7678 27.1415 24.8856C27.0968 25.0033 27.0288 25.1109 26.9414 25.2017C26.854 25.2926 26.7491 25.3649 26.6331 25.4142C26.517 25.4636 26.3921 25.4891 26.2659 25.4891C26.1397 25.4891 26.0148 25.4636 25.8988 25.4142C25.7827 25.3649 25.6778 25.2926 25.5904 25.2017C25.503 25.1109 25.435 25.0033 25.3903 24.8856C25.3456 24.7678 25.3253 24.6422 25.3305 24.5164V20.0976H27.2013ZM67.1462 65.627L69.5184 41.6392C72.2354 47.6504 76.1163 59.3902 69.1341 66.6038C68.9679 66.786 68.7462 66.9085 68.5032 66.9524C68.2603 66.9964 68.0096 66.9593 67.7899 66.8469C67.5605 66.7466 67.3719 66.5717 67.255 66.3507C67.1381 66.1297 67.0998 65.8757 67.1462 65.6301V65.627ZM64.3138 40.4998C64.3913 40.129 64.4419 39.7581 64.4814 39.3951C64.6849 37.5416 64.6242 35.6687 64.3011 33.8322C66.0566 34.0626 67.5178 34.9069 68.1457 36.0069C68.3492 36.3611 68.4582 36.7616 68.462 37.1699C68.462 38.0143 67.9622 38.8065 67.1557 39.4204C66.3168 40.0174 65.3382 40.3891 64.3138 40.4998ZM7.10083 20.1008H22.7732V24.5196C22.7633 24.9841 22.8465 25.446 23.0178 25.8781C23.1891 26.3102 23.4451 26.7038 23.7709 27.0358C24.0966 27.3679 24.4855 27.6317 24.9148 27.8118C25.344 27.9919 25.805 28.0846 26.2707 28.0846C26.7363 28.0846 27.1973 27.9919 27.6265 27.8118C28.0558 27.6317 28.4447 27.3679 28.7704 27.0358C29.0962 26.7038 29.3522 26.3102 29.5235 25.8781C29.6948 25.446 29.778 24.9841 29.7681 24.5196V20.1008H45.1922C47.5463 20.11 49.8722 20.6123 52.0194 21.5752C54.1667 22.5381 56.0874 23.9401 57.6574 25.6906C60.9626 29.3613 62.4745 34.1304 61.9368 39.1047C61.0781 46.9307 54.8392 53.2496 47.1137 54.1066C39.1842 55.0014 31.843 50.308 29.2557 42.7234C27.7817 38.3883 24.195 35.1483 19.6593 34.0531L12.0967 32.213L7.10083 20.1008Z" fill="black"/>
<path d="M68.2992 70.0048C67.6601 70.0012 67.0299 69.8545 66.4552 69.5755C65.6614 69.1945 65.0086 68.5728 64.5902 67.7993C64.1719 67.0258 64.0093 66.1401 64.1257 65.2688L66.3065 43.1638C65.5688 43.3896 64.8072 43.5289 64.0371 43.5788C62.8554 47.1089 60.716 50.2429 57.8567 52.6326C54.9079 55.126 51.2843 56.6907 47.4443 57.1287C46.6948 57.2118 45.9416 57.2555 45.1875 57.2597C41.0518 57.2704 37.0182 55.9781 33.6617 53.5669C30.2644 51.123 27.7202 47.6779 26.387 43.7161C25.8177 42.0612 24.8374 40.5772 23.5376 39.4029C22.2377 38.2286 20.6608 37.4023 18.954 37.0011L10.7415 35C10.4723 34.9367 10.2226 34.8091 10.0138 34.6282C9.80504 34.4474 9.64336 34.2186 9.5427 33.9616L3.55999 19.4838C3.45313 19.2188 3.4131 18.9318 3.44344 18.6478C3.47377 18.3638 3.57353 18.0916 3.73395 17.8551C3.89121 17.6121 4.10717 17.4125 4.36196 17.2747C4.61676 17.1368 4.90222 17.065 5.19207 17.0661H45.1875C49.3682 17.0852 53.437 18.416 56.8178 20.8702C60.1987 23.3243 62.7204 26.7774 64.026 30.7406C68.2438 31.02 71.5016 33.7896 71.5016 37.1574C71.5019 37.5737 71.452 37.9886 71.353 38.393C72.7131 41.0538 75.0188 46.1922 75.8444 51.823C76.8739 58.8505 75.351 64.5302 71.3182 68.7091C70.9274 69.1156 70.4589 69.4398 69.9403 69.6623C69.4217 69.8849 68.8637 70.0013 68.2992 70.0048ZM67.3993 41.7403L65.0666 65.3871C64.9686 66.0621 65.0907 66.7505 65.4147 67.351C65.7388 67.9514 66.2477 68.432 66.8664 68.7217C67.3128 68.9393 67.8024 69.0542 68.2992 69.0579C68.7369 69.0542 69.1695 68.963 69.5713 68.7895C69.973 68.616 70.3358 68.3638 70.6382 68.0479C79.4359 58.9436 73.4216 44.4705 70.4263 38.6708L70.3409 38.513L70.3915 38.3331C70.4974 37.9545 70.5506 37.5631 70.5496 37.17C70.5496 34.2267 67.5211 31.8169 63.6544 31.6828L63.3175 31.6717L63.2179 31.3561C62.0224 27.511 59.6301 24.1462 56.3882 21.7499C53.1463 19.3537 49.2234 18.0508 45.1891 18.0303H5.19207C5.06035 18.0298 4.93059 18.0622 4.8146 18.1245C4.6986 18.1868 4.60003 18.277 4.52785 18.387L4.51678 18.4043C4.44513 18.5121 4.40066 18.6355 4.38717 18.7641C4.37368 18.8927 4.39156 19.0227 4.43929 19.1429L10.422 33.605C10.4653 33.7219 10.5369 33.8263 10.6305 33.9089C10.724 33.9915 10.8366 34.0497 10.9581 34.0784L19.166 36.0748C23.0026 37.009 26.0359 39.7502 27.2789 43.4036C29.9168 51.1223 37.1141 56.3065 45.1875 56.3065C45.9072 56.3023 46.6262 56.2607 47.3415 56.1818C54.7206 55.3549 60.9596 50.1723 63.2337 42.9791L63.3349 42.6635L63.6702 42.6524C64.7003 42.6214 65.7171 42.4115 66.675 42.0322L67.3993 41.7403ZM68.3071 67.4419C68.0546 67.4421 67.8056 67.3838 67.5796 67.2714C67.2624 67.1274 67.0017 66.8828 66.8382 66.5758C66.6746 66.2687 66.6172 65.9163 66.675 65.5734L69.218 39.8276L69.9486 41.4436C72.8238 47.8082 76.5908 59.5827 69.4742 66.9306C69.3254 67.0914 69.145 67.2198 68.9441 67.3078C68.7433 67.3958 68.5264 67.4414 68.3071 67.4419ZM69.8063 43.5157L67.616 65.698C67.5846 65.8396 67.603 65.9876 67.6681 66.1172C67.7332 66.2468 67.841 66.3501 67.9734 66.4098L68.0113 66.4287C68.1407 66.4924 68.2876 66.5115 68.429 66.4829C68.5704 66.4544 68.6982 66.3798 68.7926 66.2709C74.9414 59.9189 72.4094 49.8851 69.8063 43.5157ZM45.1765 54.6905C37.8131 54.6905 31.2484 50.0476 28.8019 42.8781C27.3786 38.7024 23.9215 35.5761 19.5439 34.514L11.7504 32.6202L6.39241 19.6321H23.2477V24.5243C23.2385 24.9263 23.3099 25.326 23.4577 25.7001C23.6055 26.0741 23.8267 26.4149 24.1083 26.7024C24.3899 26.99 24.7263 27.2184 25.0976 27.3744C25.469 27.5304 25.8678 27.6107 26.2707 27.6107C26.6736 27.6107 27.0725 27.5304 27.4438 27.3744C27.8152 27.2184 28.1516 26.99 28.4332 26.7024C28.7148 26.4149 28.936 26.0741 29.0838 25.7001C29.2316 25.326 29.3029 24.9263 29.2937 24.5243V19.6321H45.1875C47.6069 19.6414 49.9973 20.1577 52.204 21.1475C54.4107 22.1373 56.3845 23.5787 57.9975 25.3781C61.3881 29.1436 62.949 34.0374 62.3955 39.1616C61.5115 47.2101 55.1018 53.701 47.1533 54.5832C46.4968 54.6553 45.8369 54.6912 45.1765 54.6905ZM12.44 31.8075L19.7685 33.5939C24.4639 34.7333 28.1772 38.09 29.7002 42.5735C32.2194 49.9561 39.3471 54.5074 47.0552 53.6363C54.5672 52.8046 60.6243 46.6704 61.4593 39.0543C61.9843 34.2031 60.5104 29.5681 57.3 26.0062C55.775 24.3046 53.9087 22.9418 51.8221 22.006C49.7355 21.0703 47.4751 20.5825 45.1875 20.5743H30.2379V24.5196C30.2484 25.0468 30.1535 25.5707 29.9586 26.0608C29.7637 26.5509 29.4728 26.9972 29.103 27.3738C28.7331 27.7503 28.2917 28.0494 27.8045 28.2536C27.3174 28.4578 26.7944 28.563 26.266 28.563C25.7376 28.563 25.2146 28.4578 24.7274 28.2536C24.2403 28.0494 23.7989 27.7503 23.429 27.3738C23.0591 26.9972 22.7683 26.5509 22.5734 26.0608C22.3785 25.5707 22.2836 25.0468 22.2941 24.5196V20.5743H7.80941L12.44 31.8075ZM63.7129 41.0506L63.8473 40.402C63.9122 40.0864 63.9644 39.736 64.0055 39.3368C64.2052 37.527 64.1466 35.6981 63.8315 33.9048L63.7192 33.2736L64.3597 33.3572C66.2401 33.605 67.839 34.5282 68.5538 35.767C68.801 36.192 68.9329 36.6739 68.9365 37.1652C68.9365 38.1263 68.4067 39.059 67.4436 39.7928C66.537 40.4414 65.4792 40.8478 64.3708 40.9733L63.7129 41.0506ZM64.8721 34.4067C65.1067 36.0735 65.1328 37.763 64.9496 39.4362C64.9327 39.6035 64.9138 39.7613 64.8927 39.9096C65.6054 39.7554 66.2785 39.4555 66.8695 39.029C67.5907 38.4814 67.9876 37.8154 67.9876 37.1558C67.9826 36.8266 67.8928 36.5043 67.7267 36.2199C67.2459 35.3788 66.1816 34.7097 64.8753 34.4035L64.8721 34.4067ZM26.2652 25.9462C25.888 25.9425 25.5277 25.7895 25.2635 25.5208C24.9993 25.2521 24.8527 24.8897 24.8561 24.5133V19.6211H27.6759V24.5133C27.6775 24.6998 27.6424 24.8848 27.5724 25.0578C27.5024 25.2308 27.3989 25.3883 27.268 25.5213C27.137 25.6544 26.981 25.7604 26.8089 25.8333C26.6369 25.9062 26.4521 25.9446 26.2652 25.9462ZM25.805 20.5806V24.5259C25.8013 24.5886 25.8105 24.6514 25.832 24.7104C25.8535 24.7694 25.8869 24.8234 25.93 24.869C25.9732 24.9147 26.0253 24.9511 26.083 24.976C26.1408 25.0009 26.2031 25.0137 26.266 25.0137C26.3289 25.0137 26.3912 25.0009 26.4489 24.976C26.5067 24.9511 26.5588 24.9147 26.6019 24.869C26.6451 24.8234 26.6785 24.7694 26.7 24.7104C26.7215 24.6514 26.7307 24.5886 26.727 24.5259V20.5806H25.805Z" fill="black"/>
<path d="M26.2651 10.4158C26.0968 10.4158 25.9301 10.3827 25.7745 10.3183C25.619 10.254 25.4777 10.1597 25.3588 10.0408C25.2398 9.92195 25.1455 9.78084 25.0812 9.62557C25.0169 9.4703 24.9839 9.30391 24.9841 9.13591V1.74863C24.9841 1.40961 25.1191 1.08447 25.3593 0.84474C25.5996 0.605014 25.9254 0.470337 26.2651 0.470337C26.6049 0.470337 26.9307 0.605014 27.1709 0.84474C27.4112 1.08447 27.5461 1.40961 27.5461 1.74863V9.13275C27.5467 9.30102 27.5141 9.46775 27.45 9.62339C27.3859 9.77902 27.2916 9.9205 27.1726 10.0397C27.0536 10.1589 26.9122 10.2535 26.7564 10.318C26.6007 10.3826 26.4337 10.4158 26.2651 10.4158Z" fill="black"/>
<path d="M26.2652 10.8892C25.7996 10.8875 25.3537 10.7016 25.0252 10.3724C24.6967 10.0431 24.5125 9.59729 24.5129 9.13268V1.74856C24.5129 1.51852 24.5583 1.29073 24.6466 1.0782C24.7348 0.865672 24.8641 0.672562 25.0271 0.509898C25.1901 0.347234 25.3836 0.218202 25.5966 0.130169C25.8096 0.0421362 26.0378 -0.00317383 26.2684 -0.00317383C26.4989 -0.00317383 26.7272 0.0421362 26.9402 0.130169C27.1531 0.218202 27.3466 0.347234 27.5097 0.509898C27.6727 0.672562 27.802 0.865672 27.8902 1.0782C27.9784 1.29073 28.0238 1.51852 28.0238 1.74856V9.13268C28.024 9.36327 27.9787 9.59164 27.8904 9.80473C27.8021 10.0178 27.6726 10.2115 27.5093 10.3746C27.346 10.5377 27.152 10.6671 26.9386 10.7554C26.7251 10.8437 26.4963 10.8892 26.2652 10.8892ZM26.2652 0.946867C26.0513 0.946867 25.8462 1.03166 25.6949 1.1826C25.5436 1.33354 25.4587 1.53826 25.4587 1.75172V9.13268C25.4587 9.23838 25.4795 9.34304 25.5201 9.44069C25.5606 9.53833 25.62 9.62706 25.6949 9.7018C25.7698 9.77654 25.8587 9.83582 25.9566 9.87627C26.0544 9.91672 26.1593 9.93753 26.2652 9.93753C26.3711 9.93753 26.476 9.91672 26.5739 9.87627C26.6717 9.83582 26.7606 9.77654 26.8355 9.7018C26.9104 9.62706 26.9698 9.53833 27.0104 9.44069C27.0509 9.34304 27.0718 9.23838 27.0718 9.13268V1.74856C27.0709 1.53565 26.9856 1.33174 26.8344 1.18149C26.6832 1.03123 26.4786 0.946865 26.2652 0.946867Z" fill="black"/>
<path d="M33.9559 12.8697C33.8377 12.9892 33.6971 13.0843 33.5421 13.1495C33.3872 13.2148 33.2208 13.2489 33.0526 13.25C32.8844 13.2511 32.7176 13.2192 32.5617 13.1559C32.4059 13.0927 32.2641 12.9995 32.1443 12.8816C32.0246 12.7636 31.9293 12.6233 31.8639 12.4687C31.7985 12.314 31.7643 12.148 31.7632 11.9801C31.761 11.6411 31.8938 11.3151 32.1325 11.0738L37.2944 5.85174C37.5354 5.62062 37.8574 5.49254 38.1916 5.49478C38.5259 5.49702 38.8461 5.62939 39.084 5.86372C39.3219 6.09804 39.4587 6.41579 39.4654 6.74929C39.472 7.0828 39.3479 7.40571 39.1194 7.64924L33.9559 12.8697Z" fill="black"/>
<path d="M33.0432 13.7298C32.6972 13.7291 32.3592 13.6266 32.0714 13.4349C31.7836 13.2433 31.5589 12.9712 31.4255 12.6527C31.292 12.3341 31.2558 11.9834 31.3214 11.6444C31.3869 11.3054 31.5512 10.9933 31.7938 10.7471L36.9573 5.52346C37.1189 5.35858 37.3117 5.22747 37.5246 5.13778C37.7375 5.0481 37.9661 5.00163 38.1972 5.0011H38.2083C38.5544 5.00133 38.8928 5.10369 39.1808 5.2953C39.4689 5.48691 39.6937 5.75922 39.827 6.078C39.9604 6.39677 39.9963 6.74777 39.9303 7.08687C39.8643 7.42596 39.6993 7.73801 39.4561 7.98378L34.2926 13.2027C34.1303 13.3696 33.9361 13.5022 33.7215 13.5928C33.5069 13.6833 33.2762 13.7299 33.0432 13.7298ZM38.2083 5.94956C38.1026 5.94953 37.9979 5.97028 37.9002 6.01062C37.8025 6.05097 37.7137 6.11012 37.639 6.1847L32.4691 11.4068C32.3193 11.5592 32.2361 11.7646 32.2375 11.9781C32.239 12.1916 32.3251 12.3958 32.477 12.5462C32.5511 12.621 32.6392 12.6804 32.7364 12.721C32.8336 12.7616 32.9378 12.7827 33.0432 12.7829C33.1503 12.7829 33.2563 12.7617 33.3551 12.7205C33.4539 12.6793 33.5436 12.619 33.6188 12.543L38.7808 7.32097C38.931 7.16873 39.0145 6.96325 39.013 6.74962C39.0115 6.536 38.9252 6.33169 38.7729 6.18155C38.6993 6.10661 38.6114 6.04708 38.5145 6.00643C38.4175 5.96579 38.3134 5.94484 38.2083 5.94483V5.94956Z" fill="black"/>
<path d="M19.4869 13.2564C19.317 13.2564 19.1488 13.2226 18.9921 13.1571C18.8355 13.0915 18.6934 12.9954 18.5744 12.8745L13.4109 7.64929C13.172 7.408 13.039 7.0819 13.041 6.74273C13.0431 6.40356 13.1801 6.07911 13.4219 5.84074C13.6637 5.60238 13.9905 5.46963 14.3304 5.4717C14.6703 5.47378 14.9954 5.6105 15.2343 5.85179L20.401 11.0739C20.58 11.2534 20.7016 11.4819 20.7504 11.7305C20.7992 11.979 20.773 12.2364 20.6751 12.4701C20.5773 12.7038 20.4121 12.9032 20.2006 13.0432C19.9891 13.1832 19.7407 13.2574 19.4869 13.2564Z" fill="black"/>
<path d="M19.487 13.7299C19.2544 13.7301 19.0241 13.684 18.8095 13.5943C18.595 13.5046 18.4006 13.3731 18.2376 13.2075L13.0725 7.98071C12.7463 7.64948 12.5649 7.2027 12.5682 6.73828C12.5714 6.27386 12.759 5.82966 13.0899 5.50303C13.2523 5.33967 13.4462 5.21074 13.6598 5.12396C13.8734 5.03719 14.1023 4.99435 14.3329 4.99802C14.564 4.99917 14.7925 5.04624 15.0051 5.13647C15.2177 5.22669 15.4101 5.35828 15.5712 5.52354L20.7363 10.7472C20.9797 10.9931 21.1447 11.3052 21.2107 11.6445C21.2766 11.9837 21.2405 12.3349 21.107 12.6537C20.9734 12.9725 20.7484 13.2448 20.4601 13.4363C20.1718 13.6278 19.8333 13.7299 19.487 13.7299ZM14.3219 5.9449C14.2173 5.94451 14.1137 5.96481 14.0171 6.00463C13.9204 6.04445 13.8327 6.103 13.7589 6.17689C13.6064 6.32683 13.5197 6.53102 13.5179 6.74464C13.5162 6.95827 13.5994 7.16387 13.7494 7.31631L18.9145 12.5384C18.9889 12.6136 19.0775 12.6735 19.1751 12.7145C19.2728 12.7556 19.3776 12.7771 19.4835 12.7777C19.5895 12.7784 19.6945 12.7582 19.7927 12.7184C19.8908 12.6785 19.9801 12.6198 20.0555 12.5455C20.1309 12.4712 20.1909 12.3828 20.232 12.2854C20.2732 12.1879 20.2947 12.0834 20.2954 11.9776C20.296 11.8719 20.2758 11.7671 20.2359 11.6691C20.1959 11.5712 20.1371 11.4821 20.0626 11.4068L14.8975 6.18478C14.823 6.10916 14.7341 6.04902 14.6361 6.00785C14.5381 5.96668 14.4329 5.94528 14.3266 5.9449H14.3219Z" fill="black"/>
</g>
<defs>
<clipPath id="clip0_344_1134">
<rect width="87" height="70" fill="white"/>
</clipPath>
</defs>
</svg>
