<svg width="22" height="28" viewBox="0 0 22 28" fill="none" xmlns="http://www.w3.org/2000/svg">
<path d="M9.94756 28C7.89045 28 6.21729 26.3273 6.21729 24.2707C6.21729 23.8589 6.55152 23.5248 6.96334 23.5248C7.37516 23.5248 7.7094 23.8589 7.7094 24.2707C7.7094 25.5049 8.713 26.5083 9.94756 26.5083C11.1819 26.5083 12.1857 25.5049 12.1857 24.2707C12.1857 23.8589 12.52 23.5248 12.9318 23.5248C13.3436 23.5248 13.6778 23.8589 13.6778 24.2707C13.6778 26.3273 12.0047 28 9.94756 28Z" fill="#323C4A"/>
<path d="M18.1541 25.0165H1.74092C0.780845 25.0165 0 24.2359 0 23.2762C0 22.7669 0.22185 22.2847 0.608902 21.9534C2.12178 20.6755 2.98422 18.8179 2.98422 16.8497V14.0769C2.98422 10.2383 6.10778 7.11545 9.94753 7.11545C13.7871 7.11545 16.9107 10.2383 16.9107 14.0769V16.8497C16.9107 18.8179 17.7731 20.6755 19.2761 21.9465C19.673 22.2847 19.8949 22.7669 19.8949 23.2762C19.8949 24.2359 19.114 25.0165 18.1541 25.0165ZM9.94753 8.6072C6.93034 8.6072 4.47633 11.0606 4.47633 14.0769V16.8497C4.47633 19.2573 3.421 21.5308 1.58173 23.0852C1.54694 23.115 1.49211 23.1768 1.49211 23.2762C1.49211 23.4113 1.60559 23.5248 1.74092 23.5248H18.1541C18.2893 23.5248 18.4028 23.4113 18.4028 23.2762C18.4028 23.1768 18.3481 23.115 18.3152 23.0872C16.4739 21.5308 15.4185 19.2573 15.4185 16.8497V14.0769C15.4185 11.0606 12.9645 8.6072 9.94753 8.6072Z" fill="#323C4A"/>
<path d="M9.94754 8.60723C9.53581 8.60723 9.20166 8.27307 9.20166 7.86135V4.87784C9.20166 4.46611 9.53581 4.13196 9.94754 4.13196C10.3593 4.13196 10.6934 4.46611 10.6934 4.87784V7.86135C10.6934 8.27307 10.3593 8.60723 9.94754 8.60723Z" fill="#0C0B0B"/>
<path d="M21.5853 6.42603C21.5853 9.97502 18.7076 12.8521 15.1578 12.8521C11.6079 12.8521 8.73022 9.97502 8.73022 6.42603C8.73022 2.87703 11.6079 0 15.1578 0C18.7076 0 21.5853 2.87703 21.5853 6.42603Z" fill="white"/>
<ellipse cx="15.1578" cy="6.42603" rx="5.62411" ry="5.62277" fill="#0047BA"/>
</svg>
