<svg width="81" height="31" viewBox="0 0 81 31" fill="none" xmlns="http://www.w3.org/2000/svg">
<path d="M31.7728 30.1254C29.7656 30.1254 28.0929 29.5224 26.7966 28.3246C25.5003 27.1186 24.8479 25.2927 24.8479 22.8386V13.8599C24.8479 13.7594 24.9315 13.6757 25.0319 13.6757H28.5027C28.6031 13.6757 28.6867 13.7594 28.6867 13.8599V22.6795C28.6867 23.9442 28.9711 24.8906 29.5398 25.5272C30.1085 26.1554 30.8529 26.4736 31.7728 26.4736C32.6928 26.4736 33.4288 26.1554 34.0059 25.5272C34.5746 24.899 34.859 23.9442 34.859 22.6795V13.8599C34.859 13.7594 34.9426 13.6757 35.0429 13.6757H38.5138C38.6141 13.6757 38.6978 13.7594 38.6978 13.8599V22.8302C38.6978 25.2592 38.0371 27.0851 36.7324 28.2995C35.4277 29.514 33.755 30.1254 31.7728 30.1254Z" fill="#0047BA"/>
<path d="M57.4652 21.5906L45.4385 23.8939C45.3131 23.919 45.2462 24.0614 45.3131 24.1703C45.7061 24.8403 46.2414 25.3847 46.9356 25.7952C47.705 26.2474 48.5414 26.4736 49.4613 26.4736C50.306 26.4736 51.042 26.2977 51.686 25.9375C52.33 25.5774 52.7649 25.2089 52.9824 24.8403L53.1663 24.5807C53.2751 24.4299 53.4758 24.3797 53.6431 24.4634L56.3528 25.8538C56.5452 25.9543 56.6121 26.1888 56.5034 26.3731C56.4866 26.3982 56.4699 26.4233 56.4532 26.4568C56.3445 26.6411 56.0768 26.9677 55.6587 27.4452C55.2405 27.9142 54.7721 28.333 54.262 28.6931C53.7518 29.0533 53.0576 29.3799 52.1795 29.6814C51.3013 29.9746 50.3646 30.1254 49.3777 30.1254C46.8519 30.1254 44.7945 29.3213 43.2138 27.7048C41.6332 26.0967 40.8386 24.0949 40.8386 21.7162C40.8386 19.3627 41.6415 17.3693 43.2557 15.7528C44.8614 14.1279 46.8603 13.3155 49.2355 13.3155C51.6107 13.3155 53.5929 14.1028 55.1736 15.6858C56.7208 17.2269 57.5321 19.1365 57.6157 21.4063C57.6241 21.4985 57.5572 21.5738 57.4652 21.5906ZM49.2272 16.9589C48.0145 16.9589 46.9858 17.3274 46.1494 18.0728C45.3632 18.768 44.8949 19.6726 44.736 20.7949C44.7193 20.9205 44.8364 21.0294 44.9534 21.0043L53.0325 19.4548C53.158 19.4297 53.2249 19.2957 53.1663 19.1868C52.3551 17.6959 51.042 16.9589 49.2272 16.9589Z" fill="#0047BA"/>
<path d="M3.83882 28.4921V29.9076C3.83882 30.0081 3.75519 30.0919 3.65483 30.0919H0.183996C0.0836345 30.0919 0 30.0081 0 29.9076V3.19769C0 3.09718 0.0836345 3.01343 0.183996 3.01343H3.65483C3.75519 3.01343 3.83882 3.09718 3.83882 3.19769V14.8817C3.96428 14.7561 4.13991 14.6137 4.37408 14.4378C4.60826 14.2619 5.14352 14.0274 5.9715 13.7342C6.79948 13.4327 7.68601 13.2903 8.62272 13.2903C10.8976 13.2903 12.8044 14.0776 14.3433 15.6523C15.8822 17.2269 16.6433 19.237 16.6433 21.6911C16.6433 24.1452 15.8738 26.1637 14.3433 27.7299C12.8128 29.3045 10.9059 30.0919 8.63108 30.0919C7.69437 30.0919 6.82458 29.9662 6.03005 29.6982C5.23552 29.4386 4.66681 29.1705 4.3239 28.9025L3.83882 28.4921ZM4.99298 18.2152C4.12318 19.0695 3.69665 20.2254 3.69665 21.6911C3.69665 23.1568 4.13154 24.3127 4.99298 25.167C5.86278 26.0213 6.95003 26.4485 8.26309 26.4485C9.57615 26.4485 10.6634 26.0213 11.5332 25.167C12.403 24.3127 12.8295 23.1568 12.8295 21.6911C12.8295 20.2254 12.3946 19.0695 11.5332 18.2152C10.6634 17.3609 9.57615 16.9337 8.26309 16.9337C6.94166 16.9337 5.85442 17.3609 4.99298 18.2152Z" fill="#0047BA"/>
<path d="M18.8596 29.6647V3.19769C18.8596 3.09718 18.9433 3.01343 19.0436 3.01343H22.5228C22.6232 3.01343 22.7068 3.09718 22.7068 3.19769V29.6647C22.7068 29.7652 22.6232 29.849 22.5228 29.849H19.0436C18.9433 29.849 18.8596 29.7652 18.8596 29.6647Z" fill="#0047BA"/>
<path d="M59.7568 0.190858V4.26142C59.7568 4.38705 59.8154 4.50431 59.9241 4.57131L65.3854 8.25659C65.5109 8.34035 65.6782 8.34035 65.8036 8.25659L68.7894 6.23807C68.8981 6.16268 68.8981 6.00355 68.7894 5.92817L60.0412 0.031721C59.9157 -0.0520353 59.7568 0.0400966 59.7568 0.190858Z" fill="#0047BA"/>
<path d="M60.1249 30.0919L80.6237 30.0835C80.8328 30.0835 81.0001 29.916 81.0001 29.7066V14.287C81.0001 14.2284 80.9666 14.1698 80.9164 14.1279L75.3046 10.3338C75.1791 10.25 75.0118 10.25 74.8864 10.3338L71.9006 12.3439C71.7919 12.4193 71.7919 12.5784 71.9006 12.6538L77.0609 16.1464C77.1111 16.1799 77.1445 16.2386 77.1445 16.3056V26.0716C77.1445 26.281 76.9772 26.4485 76.7682 26.4485H72.6617C72.4526 26.4485 72.2853 26.281 72.2853 26.0716V17.5535L70.3283 16.2302L68.4382 17.5117V26.0799C68.4382 26.2893 68.2709 26.4568 68.0618 26.4568H63.9553C63.7463 26.4568 63.579 26.2893 63.579 26.0799V16.2637C63.579 16.2051 63.6124 16.1464 63.6626 16.1046L80.8077 4.52106C80.9081 4.45406 80.975 4.3368 80.975 4.21116V0.190858C80.975 0.0400966 80.8077 -0.0520353 80.6823 0.031721L59.8322 14.086C59.782 14.1195 59.7485 14.1782 59.7485 14.2452V29.7233C59.7569 29.9244 59.9242 30.0919 60.1249 30.0919Z" fill="#0047BA"/>
</svg>
