<svg width="216" height="80" viewBox="0 0 216 80" fill="none" xmlns="http://www.w3.org/2000/svg">
<g clip-path="url(#clip0_3_2)">
<path d="M84.4 79.9C79.1 79.9 74.6 78.3 71.2 75.1C67.7 71.9 66 67.1 66 60.5V36.8C66 36.5 66.2 36.3 66.5 36.3H75.7C76 36.3 76.2 36.5 76.2 36.8V60.2C76.2 63.6 77 66.1 78.5 67.8C80 69.5 82 70.3 84.4 70.3C86.8 70.3 88.8 69.5 90.3 67.8C91.8 66.1 92.6 63.6 92.6 60.2V36.8C92.6 36.5 92.8 36.3 93.1 36.3H102.3C102.6 36.3 102.8 36.5 102.8 36.8V60.6C102.8 67.1 101.1 71.9 97.6 75.1C94.1 78.3 89.7 79.9 84.4 79.9Z" fill="#0047BA"/>
<path d="M152.7 57.3L120.7 63.4C120.4 63.5 120.2 63.8 120.4 64.1C121.4 65.9 122.9 67.3 124.7 68.4C126.7 69.6 129 70.2 131.4 70.2C133.6 70.2 135.6 69.7 137.3 68.8C139 67.8 140.2 66.9 140.8 65.9L141.3 65.2C141.6 64.8 142.1 64.7 142.6 64.9L149.8 68.6C150.3 68.9 150.5 69.5 150.2 70C150.2 70.1 150.1 70.1 150.1 70.2C149.8 70.7 149.1 71.6 148 72.8C146.9 74.1 145.6 75.2 144.3 76.1C143 77.1 141.1 77.9 138.8 78.7C136.5 79.5 134 79.9 131.4 79.9C124.7 79.9 119.2 77.8 115 73.5C110.8 69.2 108.7 63.9 108.7 57.6C108.7 51.4 110.8 46.1 115.1 41.8C119.4 37.5 124.7 35.3 131 35.3C137.3 35.3 142.6 37.4 146.8 41.6C150.9 45.7 153.1 50.8 153.3 56.8C153.1 57 152.9 57.2 152.7 57.3ZM130.8 45C127.6 45 124.8 46 122.6 48C120.5 49.8 119.3 52.2 118.8 55.2C118.8 55.5 119.1 55.8 119.4 55.7L140.9 51.6C141.2 51.5 141.4 51.2 141.2 50.9C139.1 46.9 135.6 45 130.8 45Z" fill="#0047BA"/>
<path d="M10.2 75.6V79.4C10.2 79.7 10 79.9 9.7 79.9H0.5C0.2 79.9 0 79.7 0 79.4V8.5C0 8.2 0.2 8 0.5 8H9.7C10 8 10.2 8.2 10.2 8.5V39.5C10.5 39.2 11 38.8 11.6 38.3C12.2 37.8 13.6 37.2 15.8 36.4C18 35.6 20.4 35.2 22.9 35.2C28.9 35.2 34 37.3 38.1 41.5C42.2 45.7 44.2 51 44.2 57.5C44.2 64 42.2 69.4 38.1 73.5C34 77.7 29 79.8 22.9 79.8C20.4 79.8 18.1 79.5 16 78.8C13.9 78.1 12.4 77.4 11.5 76.7L10.2 75.6ZM13.3 48.3C11 50.6 9.8 53.6 9.8 57.5C9.8 61.4 10.9 64.5 13.3 66.7C15.6 69 18.5 70.1 22 70.1C25.5 70.1 28.4 69 30.7 66.7C33 64.4 34.2 61.4 34.2 57.5C34.2 53.6 33 50.5 30.7 48.3C28.4 46 25.5 44.9 22 44.9C18.5 44.9 15.6 46 13.3 48.3Z" fill="#0047BA"/>
<path d="M50.1 78.7V8.5C50.1 8.2 50.3 8 50.6 8H59.8C60.1 8 60.3 8.2 60.3 8.5V78.7C60.3 79 60.1 79.2 59.8 79.2H50.6C50.3 79.2 50.1 79 50.1 78.7Z" fill="#0047BA"/>
<path d="M158.8 0.500006V11.3C158.8 11.6 159 11.9 159.2 12.1L173.7 21.9C174 22.1 174.5 22.1 174.8 21.9L182.7 16.6C183 16.4 183 16 182.7 15.8L159.5 0.100006C159.2 -0.0999936 158.8 0.100006 158.8 0.500006Z" fill="#0047BA"/>
<path d="M159.8 79.8H214.3C214.8 79.8 215.3 79.4 215.3 78.8V37.9C215.3 37.7 215.2 37.6 215.1 37.5L200.2 27.4C199.9 27.2 199.4 27.2 199.1 27.4L191.2 32.7C190.9 32.9 190.9 33.3 191.2 33.5L204.9 42.8C205 42.9 205.1 43 205.1 43.2V69.1C205.1 69.6 204.7 70.1 204.1 70.1H193.2C192.7 70.1 192.2 69.7 192.2 69.1V46.6L187 43.1L182 46.5V69.2C182 69.7 181.6 70.2 181 70.2H170C169.5 70.2 169 69.8 169 69.2V43.2C169 43 169.1 42.9 169.2 42.8L214.8 12C215.1 11.8 215.2 11.5 215.2 11.2V0.500006C215.2 0.100006 214.8 -0.0999936 214.4 0.100006L159 37.4C158.9 37.5 158.8 37.6 158.8 37.8V78.9C158.8 79.4 159.2 79.8 159.8 79.8Z" fill="#0047BA"/>
</g>
<defs>
<clipPath id="clip0_3_2">
<rect width="215.2" height="79.9" fill="white"/>
</clipPath>
</defs>
</svg>
