<svg width="78" height="57" viewBox="0 0 78 57" fill="none" xmlns="http://www.w3.org/2000/svg">
<path d="M76.829 30.424C76.138 29.552 75.174 28.938 74.093 28.678L67.794 14.837C67.248 13.696 66.389 12.733 65.319 12.059C64.248 11.384 63.01 11.026 61.744 11.025H49.561C48.646 11.025 47.904 11.767 47.904 12.682V28.512H42.683V11.191C42.683 10.752 42.508 10.33 42.197 10.019C41.887 9.708 41.465 9.533 41.025 9.533H31.411V1.66C31.435 1.214 31.268 0.778005 30.952 0.462005C30.636 0.146005 30.2 -0.0209953 29.753 0.00300473H10.526C9.61 0.00300473 8.868 0.745005 8.868 1.66V17.904H8.039C7.123 17.904 6.382 18.646 6.382 19.561V28.512H1.657C0.742 28.512 0 29.254 0 30.17V45.254C0 46.573 0.524 47.838 1.456 48.771C2.388 49.703 3.653 50.227 4.972 50.227H7.624C8.126 52.662 9.727 54.727 11.959 55.821C14.191 56.915 16.804 56.915 19.036 55.821C21.268 54.727 22.869 52.662 23.371 50.227H54.45C54.952 52.662 56.552 54.727 58.785 55.821C61.018 56.915 63.63 56.915 65.863 55.821C68.095 54.727 69.695 52.662 70.198 50.227H72.933C74.252 50.227 75.517 49.703 76.449 48.771C77.381 47.839 77.905 46.574 77.905 45.254V33.485C77.899 32.373 77.52 31.295 76.829 30.424ZM51.219 14.339H61.745C62.372 14.342 62.984 14.523 63.513 14.861C64.041 15.199 64.462 15.678 64.729 16.246L70.364 28.512L51.219 28.513V14.339ZM74.591 45.253C74.591 45.693 74.416 46.114 74.105 46.425C73.794 46.736 73.373 46.911 72.933 46.911H70.115C69.616 44.504 68.032 42.462 65.824 41.381C63.616 40.299 61.033 40.299 58.825 41.381C56.617 42.462 55.033 44.503 54.534 46.911H23.289C22.79 44.504 21.206 42.462 18.998 41.381C16.79 40.299 14.207 40.299 11.999 41.381C9.791 42.462 8.207 44.503 7.708 46.911H4.973C4.058 46.911 3.316 46.169 3.316 45.253V31.827H72.934C73.373 31.827 73.795 32.002 74.106 32.313C74.417 32.624 74.592 33.045 74.592 33.485V45.253H74.591Z" fill="black"/>
<path d="M12.1831 3.31702H28.0961V9.53302H21.4661C21.0201 9.50902 20.5841 9.67602 20.2681 9.99202C19.9521 10.308 19.7851 10.744 19.8091 11.19V17.903L12.1841 17.904L12.1831 3.31702Z" fill="#0047BA"/>
<path d="M19.808 21.219H9.69702V28.512H19.808V21.219Z" fill="#0047BA"/>
<path d="M15.4979 53.376C14.2669 53.376 13.0869 52.887 12.2159 52.016C11.3459 51.146 10.8569 49.966 10.8569 48.735C10.8569 47.496 11.3429 46.307 12.2109 45.424C13.0789 44.54 14.2599 44.033 15.4979 44.011C16.7439 44.032 17.9339 44.537 18.8149 45.418C19.6969 46.3 20.2009 47.489 20.2229 48.735C20.2009 49.973 19.6939 51.154 18.8099 52.022C17.9259 52.889 16.7369 53.376 15.4979 53.376Z" fill="#E4E5E7"/>
<path d="M62.3241 53.376C61.0861 53.376 59.8971 52.89 59.0131 52.021C58.1301 51.153 57.6231 49.973 57.6011 48.734C57.6011 47.046 58.5011 45.487 59.9631 44.643C61.4241 43.799 63.2251 43.799 64.6871 44.643C66.1491 45.487 67.0491 47.046 67.0491 48.734C67.0271 49.972 66.5201 51.153 65.6371 52.021C64.7521 52.889 63.5631 53.376 62.3241 53.376Z" fill="#E4E5E7"/>
<path d="M39.368 12.848H23.124V28.512H39.368V12.848Z" fill="#0047BA"/>
</svg>
