<svg width="65" height="62" viewBox="0 0 65 62" fill="none" xmlns="http://www.w3.org/2000/svg">
<path d="M50.1922 26.8224V5.90496C50.1922 2.65999 47.5322 0 44.2851 0H5.90496C2.65999 0 0 2.65999 0 5.90496V44.2851C0 47.5301 2.65999 50.1901 5.90496 50.1901H30.5401C32.9775 57.0615 39.5416 62 47.2376 62C57.0043 62 64.9525 54.0518 64.9525 44.2851C64.9525 35.5273 58.5558 28.234 50.1922 26.8224ZM29.7749 47.2376H5.90496C4.24327 47.2376 2.95248 45.9468 2.95248 44.2851V10.3347H17.7149V23.6199C17.7149 24.2154 18.0752 24.7538 18.6263 24.9827C19.1774 25.2116 19.8132 25.0844 20.235 24.6627L25.095 19.8026L29.9572 24.6627C30.379 25.0844 31.0148 25.2116 31.5659 24.9827C32.117 24.7538 32.4773 24.2154 32.4773 23.6199V10.3347H47.2397V26.5723C37.473 26.5723 29.5248 34.5205 29.5248 44.2872C29.5248 45.2919 29.6138 46.2775 29.7749 47.2376ZM47.2376 59.0496C39.0669 59.0496 32.4752 52.4579 32.4752 44.2872C32.4752 36.1165 39.0669 29.5248 47.2376 29.5248C55.4083 29.5248 62 36.1165 62 44.2872C62 52.4558 55.4104 59.0496 47.2376 59.0496Z" fill="black"/>
</svg>
