<svg width="60" height="54" viewBox="0 0 60 54" fill="none" xmlns="http://www.w3.org/2000/svg">
<g clip-path="url(#clip0_339_1003)">
<path d="M13.4136 6.29672L43.5709 0.46582C43.5709 0.46582 45.4066 3.93815 45.6033 4.26573C45.7999 4.59331 46.0622 9.37596 46.0622 9.37596L13.4136 8.8741V6.29672Z" fill="#0047BA"/>
<path fill-rule="evenodd" clip-rule="evenodd" d="M16.5636 7.44972H44.9541V5.12326C44.9561 4.94131 44.9419 4.75954 44.9115 4.58013C44.8262 4.05827 44.5608 3.58268 44.1615 3.23575C43.7632 2.90793 43.2607 2.7332 42.7448 2.74307C42.5749 2.74193 42.4053 2.75596 42.238 2.785L16.5636 7.44972V7.44972ZM48.967 32.1767C48.6796 32.1767 48.3986 32.0915 48.1597 31.9318C47.9207 31.7722 47.7345 31.5454 47.6246 31.28C47.5147 31.0146 47.486 30.7225 47.5423 30.4409C47.5985 30.1592 47.737 29.9005 47.9404 29.6975C48.1438 29.4946 48.4028 29.3565 48.6848 29.3007C48.9667 29.2449 49.2589 29.2739 49.5243 29.3841C49.7898 29.4943 50.0165 29.6807 50.1759 29.9197C50.3353 30.1587 50.4202 30.4396 50.4198 30.7268C50.4198 31.1118 50.2667 31.4811 49.9943 31.7534C49.7218 32.0257 49.3523 32.1786 48.967 32.1786V32.1767ZM47.6991 7.44972H54.1521C55.7013 7.4537 57.1858 8.07049 58.2812 9.16525C59.3765 10.26 59.9936 11.7436 59.9974 13.2918V48.1579C59.9936 49.706 59.3765 51.1897 58.2812 52.2844C57.1858 53.3792 55.7013 53.996 54.1521 53.9999H5.84528C4.29602 53.9963 2.81126 53.3796 1.71583 52.2848C0.620394 51.19 0.00346281 49.7061 0 48.1579L0 13.2164C0 13.1922 0 13.1679 0 13.1437V13.1391C0 13.1155 0 13.0926 0 13.069V13.0605C0.0576923 11.591 0.655594 10.1686 1.58392 9.03913C2.56731 7.8474 3.93488 6.96949 5.45651 6.69301L41.7555 0.0955814C42.0817 0.0342616 42.4128 0.00224955 42.7448 -7.14853e-05C43.9095 -0.00985602 45.0395 0.396521 45.9309 1.1458C46.7832 1.86647 47.3824 2.88589 47.6027 4.09794C47.6657 4.43611 47.6979 4.77928 47.6991 5.12326V7.44972V7.44972ZM0 13.2164V13.1437C0 13.1679 0 13.1922 0 13.2164ZM57.255 26.4722H47.3693C46.2407 26.4722 45.1583 26.9202 44.3603 27.7178C43.5622 28.5153 43.1139 29.597 43.1139 30.7248C43.1139 31.8527 43.5622 32.9344 44.3603 33.7319C45.1583 34.5294 46.2407 34.9774 47.3693 34.9774H57.255V26.4722ZM47.3693 23.7291H57.255V13.2918C57.2517 12.4705 56.9237 11.6839 56.3425 11.1034C55.7612 10.5229 54.9739 10.1956 54.1521 10.1929H5.76923H5.7299C5.71678 10.1929 5.70302 10.1929 5.6899 10.1929H5.65057H5.61123L5.57255 10.1961L5.53322 10.2001L5.49454 10.204L5.45586 10.2086L5.41718 10.2138L5.37915 10.2197L5.34047 10.2256L5.30245 10.2328L5.26442 10.2394L5.2264 10.2472L5.18903 10.2551L5.15166 10.2636L5.11429 10.2728L5.07758 10.282L5.04021 10.2918L5.0035 10.3023L4.96678 10.3128L4.93073 10.3239L4.89401 10.3357L4.85795 10.3475L4.82255 10.3599L4.78649 10.373L4.75109 10.3861L4.71635 10.3999L4.68094 10.4143L4.6462 10.4287L4.61145 10.4438L4.57736 10.4589L4.54327 10.4746L4.50918 10.491L4.47509 10.5073L4.44165 10.5244L4.40822 10.5421L4.37544 10.5597L4.34266 10.5781L4.30988 10.5964L4.27775 10.6154L4.24563 10.6344L4.2135 10.6541L4.18204 10.6744L4.15057 10.6947L4.11976 10.7157L4.08894 10.7366L4.05878 10.7583L4.02863 10.7799L3.99847 10.8022L3.96897 10.8251L3.93947 10.8474L3.90996 10.8709L3.88112 10.8945L3.85293 10.9181L3.82474 10.943L3.79655 10.9673L3.76901 10.9922L3.74148 11.0177L3.71394 11.0433L3.68706 11.0688L3.66084 11.095L3.63462 11.1219L3.60839 11.1487L3.58282 11.1756L3.55791 11.2031L3.533 11.2306L3.50809 11.2588L3.48383 11.287L3.46023 11.3158L3.43663 11.3446L3.41302 11.3735L3.39008 11.4029C3.38287 11.4128 3.375 11.4226 3.36779 11.4331L3.3455 11.4626L3.32321 11.4933L3.30223 11.5235C3.29502 11.534 3.28781 11.5438 3.28125 11.5543L3.26027 11.5857L3.23995 11.6165C3.23274 11.627 3.22618 11.6375 3.21962 11.648L3.19996 11.6801L3.18029 11.7122L3.16193 11.7443C3.15538 11.7554 3.14948 11.7665 3.14292 11.777L3.12522 11.8098L3.10752 11.8432L3.08982 11.8766L3.07277 11.9094L3.05638 11.9434L3.03999 11.9775L3.02426 12.0116L3.00852 12.0456L2.9941 12.0804L2.97902 12.1157L2.96525 12.1505L2.95149 12.1858L2.93772 12.2212L2.92526 12.2566L2.91281 12.2926C2.90887 12.3044 2.90428 12.3162 2.90101 12.3287L2.8892 12.3647L2.87806 12.4007C2.87413 12.4132 2.87085 12.4256 2.86691 12.4374L2.85708 12.4748L2.84725 12.5115C2.84725 12.5239 2.84069 12.5364 2.83807 12.5482C2.83807 12.5606 2.83217 12.573 2.82955 12.5855C2.82692 12.5979 2.82364 12.6104 2.82102 12.6228L2.81316 12.6608L2.80529 12.6988C2.80529 12.7113 2.8007 12.7237 2.79808 12.7362C2.79545 12.7486 2.79349 12.7617 2.79152 12.7748L2.78562 12.8128L2.77972 12.8515C2.77972 12.8639 2.77972 12.877 2.77448 12.8895L2.76989 12.9281C2.76989 12.9412 2.76989 12.9543 2.76595 12.9668L2.76202 13.0061C2.76202 13.0192 2.76202 13.0323 2.75874 13.0454C2.75546 13.0585 2.75874 13.0716 2.75874 13.0847C2.75874 13.0978 2.75874 13.1103 2.75874 13.124V13.1633C2.75874 13.1764 2.75874 13.1895 2.75874 13.2027C2.75874 13.2158 2.75874 13.2295 2.75874 13.2426V48.1579C2.76202 48.9787 3.08969 49.7649 3.67038 50.3453C4.25107 50.9257 5.03774 51.2533 5.85905 51.2568H54.1521C54.9734 51.2533 55.7601 50.9257 56.3408 50.3453C56.9215 49.7649 57.2491 48.9787 57.2524 48.1579V37.7206H47.3693C45.5127 37.7206 43.7321 36.9835 42.4193 35.6716C41.1064 34.3596 40.3689 32.5802 40.3689 30.7248C40.3689 28.8694 41.1064 27.09 42.4193 25.7781C43.7321 24.4661 45.5127 23.7291 47.3693 23.7291V23.7291Z" fill="#231F20"/>
</g>
<defs>
<clipPath id="clip0_339_1003">
<rect width="60" height="54" fill="white"/>
</clipPath>
</defs>
</svg>
